JosefinSlab-SemiBoldItalic-TTF.ufo
<glyph name="slash" format="1">
  <advance width="363"/>
  <unicode hex="002F"/>
  <outline>
    <contour>
      <point x="-36" y="-19" type="line" name="dh01"/>
      <point x="61" y="171"/>
      <point x="251" y="546"/>
      <point x="348" y="736" type="qcurve" name="sh01"/>
      <point x="411" y="736" type="line" name="dh02"/>
      <point x="314" y="546"/>
      <point x="123" y="171"/>
      <point x="26" y="-19" type="qcurve" name="sh02"/>
    </contour>
  </outline>
</glyph>
<glyph name="three" format="1">
  <advance width="515"/>
  <unicode hex="0033"/>
  <outline>
    <contour>
      <point x="163" y="336" type="qcurve" name="ih01"/>
      <point x="359" y="588" type="line" name="sh02"/>
      <point x="199" y="588" type="line" name="sh04"/>
      <point x="192" y="535" type="line" name="sh03"/>
      <point x="133" y="535" type="line" name="ih02"/>
      <point x="149" y="650" type="line" name="sh05"/>
      <point x="475" y="650" type="line" name="sh01"/>
      <point x="281" y="408" type="line" name="sh06"/>
      <point x="316" y="400"/>
      <point x="374" y="364" name="fh01"/>
      <point x="393.0" y="337.5" type="qcurve" smooth="yes" name="inserted"/>
      <point x="412" y="311" name="fh02"/>
      <point x="429" y="244"/>
      <point x="424" y="205" type="qcurve" name="dh02"/>
      <point x="418" y="161"/>
      <point x="372" y="84" name="fh03"/>
      <point x="339.0" y="55.0" type="qcurve" smooth="yes" name="inserted"/>
      <point x="306" y="26" name="fh04"/>
      <point x="223" y="-8"/>
      <point x="179" y="-8" type="qcurve" name="ab01"/>
      <point x="132" y="-8"/>
      <point x="57" y="29"/>
      <point x="32" y="61" type="qcurve" name="dh01"/>
      <point x="84" y="105" type="line" name="sh07"/>
      <point x="101" y="82" name="fh05"/>
      <point x="153" y="53"/>
      <point x="187" y="53" type="qcurve" name="sv01"/>
      <point x="218" y="53"/>
      <point x="277" y="77"/>
      <point x="300.5" y="98.0" type="qcurve" smooth="yes" name="inserted"/>
      <point x="324" y="119"/>
      <point x="356" y="174"/>
      <point x="361" y="205" type="qcurve" name="sh08"/>
      <point x="365" y="236"/>
      <point x="349" y="291"/>
      <point x="331.0" y="311.0" type="qcurve" smooth="yes" name="inserted"/>
      <point x="313" y="331" name="fh06"/>
      <point x="260" y="355"/>
      <point x="229" y="355" type="qcurve" name="iv01"/>
      <point x="212.0" y="355.0" name="inserted"/>
      <point x="179.0" y="345.5"/>
    </contour>
  </outline>
</glyph>
<glyph name="five" format="1">
  <advance width="543"/>
  <unicode hex="0035"/>
  <outline>
    <contour>
      <point x="476" y="650" type="line" name="sh01"/>
      <point x="460" y="535" type="line" name="sh02"/>
      <point x="400" y="535" type="line" name="sh03"/>
      <point x="407" y="589" type="line" name="sh04"/>
      <point x="243" y="589" type="line" name="sh06"/>
      <point x="218" y="407" type="line" name="sh05"/>
      <point x="230.0" y="411.0" name="inserted"/>
      <point x="254.0" y="415.0"/>
      <point x="266" y="415" type="qcurve" name="iv01"/>
      <point x="310" y="415"/>
      <point x="383" y="382"/>
      <point x="408.5" y="353.5" type="qcurve" smooth="yes" name="inserted"/>
      <point x="434" y="325" name="fh01"/>
      <point x="458" y="249"/>
      <point x="452" y="205" type="qcurve" name="dh02"/>
      <point x="446" y="161"/>
      <point x="400" y="84" name="fh02"/>
      <point x="366.5" y="55.0" type="qcurve" smooth="yes" name="inserted"/>
      <point x="333" y="26" name="fh03"/>
      <point x="250" y="-8"/>
      <point x="207" y="-8" type="qcurve" name="ab01"/>
      <point x="164" y="-8"/>
      <point x="93" y="23"/>
      <point x="68" y="51" type="qcurve" name="dh01"/>
      <point x="120" y="94" type="line" name="sh07"/>
      <point x="138.0" y="73.5" name="inserted"/>
      <point x="185.5" y="53.0"/>
      <point x="215" y="53" type="qcurve" name="sv01"/>
      <point x="246" y="53"/>
      <point x="305" y="77" name="fh05"/>
      <point x="329.0" y="98.0" type="qcurve" smooth="yes" name="inserted"/>
      <point x="353" y="119"/>
      <point x="384" y="174"/>
      <point x="389" y="205" type="qcurve" name="sh08"/>
      <point x="393" y="236"/>
      <point x="377" y="290"/>
      <point x="359.0" y="310.0" type="qcurve" smooth="yes" name="inserted"/>
      <point x="341" y="330" name="fh06"/>
      <point x="288" y="354"/>
      <point x="257" y="354" type="qcurve" name="sv02"/>
      <point x="222" y="354"/>
      <point x="161" y="331" name="fh07"/>
      <point x="140" y="307" type="qcurve" name="ih01"/>
      <point x="189" y="650" type="line" name="sh09"/>
    </contour>
  </outline>
</glyph>
<glyph name="six" format="1">
  <advance width="520"/>
  <unicode hex="0036"/>
  <outline>
    <contour>
      <point x="97" y="204" type="qcurve" name="sh01"/>
      <point x="92" y="173"/>
      <point x="108" y="118"/>
      <point x="125.0" y="97.5" type="qcurve" smooth="yes" name="inserted"/>
      <point x="142" y="77" name="fh01"/>
      <point x="193" y="53"/>
      <point x="224" y="53" type="qcurve" name="sv01"/>
      <point x="255" y="53"/>
      <point x="314" y="77"/>
      <point x="338.0" y="97.5" type="qcurve" smooth="yes" name="inserted"/>
      <point x="362" y="118"/>
      <point x="393" y="173"/>
      <point x="398" y="204" type="qcurve" name="sh02"/>
      <point x="402" y="235"/>
      <point x="386" y="290"/>
      <point x="368.0" y="310.0" type="qcurve" smooth="yes" name="inserted"/>
      <point x="350" y="330" name="fh02"/>
      <point x="298" y="354"/>
      <point x="267" y="354" type="qcurve" name="sv02"/>
      <point x="236" y="354"/>
      <point x="178" y="330" name="fh03"/>
      <point x="155.0" y="310.0" type="qcurve" smooth="yes" name="inserted"/>
      <point x="132" y="290" name="fh04"/>
      <point x="101" y="235"/>
    </contour>
    <contour>
      <point x="32" y="196" type="qcurve" name="dh01"/>
      <point x="42" y="268"/>
      <point x="121" y="393" name="fh05"/>
      <point x="176.5" y="447.0" type="qcurve" smooth="yes" name="inserted"/>
      <point x="232" y="501" name="fh06"/>
      <point x="363" y="595" name="fh07"/>
      <point x="425" y="636" type="qcurve" name="sh04"/>
      <point x="433" y="624"/>
      <point x="449" y="599"/>
      <point x="457" y="587" type="qcurve" name="sh03"/>
      <point x="363" y="530" name="fh08"/>
      <point x="243" y="429" name="fh09"/>
      <point x="209" y="390" type="qcurve" name="ih01"/>
      <point x="223" y="401"/>
      <point x="256" y="415"/>
      <point x="275" y="415" type="qcurve" name="iv01"/>
      <point x="319" y="415"/>
      <point x="393" y="382" name="fh10"/>
      <point x="418.5" y="353.5" type="qcurve" smooth="yes" name="inserted"/>
      <point x="444" y="325"/>
      <point x="467" y="248"/>
      <point x="461" y="204" type="qcurve" name="dh02"/>
      <point x="455" y="160" name="fh11"/>
      <point x="409" y="83" name="fh12"/>
      <point x="376.0" y="54.5" type="qcurve" smooth="yes" name="inserted"/>
      <point x="343" y="26" name="fh13"/>
      <point x="260" y="-8"/>
      <point x="216" y="-8" type="qcurve" name="ab01"/>
      <point x="173" y="-8"/>
      <point x="101" y="24" name="fh14"/>
      <point x="76.0" y="51.5" type="qcurve" smooth="yes" name="inserted"/>
      <point x="51" y="79"/>
      <point x="27" y="154"/>
    </contour>
  </outline>
</glyph>
<glyph name="seven" format="1">
  <advance width="469"/>
  <unicode hex="0037"/>
  <outline>
    <contour>
      <point x="468" y="650" type="line" name="dh02"/>
      <point x="85" y="0" type="line" name="sh01"/>
      <point x="14" y="0" type="line" name="dh01"/>
      <point x="362" y="588" type="line" name="sh02"/>
      <point x="110" y="588" type="line" name="sh04"/>
      <point x="103" y="535" type="line" name="sh03"/>
      <point x="43" y="535" type="line" name="ih01"/>
      <point x="59" y="650" type="line" name="sh05"/>
    </contour>
  </outline>
</glyph>
<glyph name="colon" format="1">
  <advance width="175"/>
  <unicode hex="003A"/>
  <outline>
    <contour>
      <point x="60" y="292" type="qcurve" name="sh01"/>
      <point x="62" y="311"/>
      <point x="91" y="335"/>
      <point x="108" y="335" type="qcurve" name="av01"/>
      <point x="124" y="335"/>
      <point x="146" y="311"/>
      <point x="144" y="292" type="qcurve" name="sh02"/>
      <point x="142" y="273"/>
      <point x="112" y="250"/>
      <point x="96" y="250" type="qcurve" name="sv01"/>
      <point x="80" y="250"/>
      <point x="57" y="273"/>
    </contour>
    <contour>
      <point x="25" y="42" type="qcurve" name="ah01"/>
      <point x="27" y="61"/>
      <point x="56" y="85"/>
      <point x="73" y="85" type="qcurve" name="sv02"/>
      <point x="89" y="85"/>
      <point x="111" y="61"/>
      <point x="109" y="42" type="qcurve" name="sh03"/>
      <point x="106" y="23"/>
      <point x="77" y="0"/>
      <point x="61" y="0" type="qcurve" name="ab01"/>
      <point x="45" y="0"/>
      <point x="22" y="23"/>
    </contour>
  </outline>
</glyph>
<glyph name="equal" format="1">
  <advance width="708"/>
  <unicode hex="003D"/>
  <outline>
    <contour>
      <point x="596" y="184" type="line" name="dh02"/>
      <point x="587" y="123" type="line"/>
      <point x="81" y="123" type="line" name="dh01"/>
      <point x="90" y="184" type="line" name="sv01"/>
    </contour>
    <contour>
      <point x="623" y="378" type="line" name="sh02"/>
      <point x="614" y="317" type="line"/>
      <point x="108" y="317" type="line" name="sh01"/>
      <point x="117" y="378" type="line" name="sv02"/>
    </contour>
  </outline>
</glyph>
<glyph name="greater" format="1">
  <advance width="650"/>
  <unicode hex="003E"/>
  <outline>
    <contour>
      <point x="80" y="-14" type="qcurve" name="dh01"/>
      <point x="91" y="70" type="line" name="sv01"/>
      <point x="170" y="112"/>
      <point x="328" y="196" name="fv01"/>
      <point x="408" y="238" type="qcurve" name="sh01"/>
      <point x="340" y="280" name="fv02"/>
      <point x="206" y="364" name="fv03"/>
      <point x="139" y="406" type="qcurve" name="sh02"/>
      <point x="151" y="490" type="line" name="sv02"/>
      <point x="252" y="427" name="fv04"/>
      <point x="451" y="301"/>
      <point x="553" y="238" type="qcurve" name="dh02"/>
      <point x="434" y="175"/>
      <point x="199" y="49"/>
    </contour>
  </outline>
</glyph>
<glyph name="A" format="1">
  <advance width="800"/>
  <unicode hex="0041"/>
  <outline>
    <contour>
      <point x="43" y="59" type="line"/>
      <point x="123" y="59" type="line" name="dh01"/>
      <point x="217" y="229"/>
      <point x="407" y="562"/>
      <point x="502" y="732" type="qcurve" name="ih01"/>
      <point x="550" y="562"/>
      <point x="645" y="229"/>
      <point x="693" y="59" type="qcurve" name="dh02"/>
      <point x="773" y="59" type="line"/>
      <point x="765" y="0" type="line"/>
      <point x="557" y="0" type="line" name="sv03"/>
      <point x="565" y="59" type="line" name="sv02"/>
      <point x="630" y="59" type="line" name="sh01"/>
      <point x="613" y="117"/>
      <point x="582" y="231"/>
      <point x="565" y="289" type="qcurve" name="ih02"/>
      <point x="314" y="289" type="line" name="ih03"/>
      <point x="282" y="231"/>
      <point x="218" y="117"/>
      <point x="185" y="59" type="qcurve" name="sh03"/>
      <point x="251" y="59" type="line" name="sv01"/>
      <point x="243" y="0" type="line" name="ab01"/>
      <point x="35" y="0" type="line"/>
    </contour>
    <contour>
      <point x="488" y="563" type="line" name="fh01"/>
      <point x="483" y="594" type="line" name="sh02"/>
      <point x="482" y="592"/>
      <point x="477" y="582"/>
      <point x="475" y="577" type="qcurve"/>
      <point x="473.0" y="574.0" name="inserted"/>
      <point x="469.5" y="567.0"/>
      <point x="468" y="563" type="qcurve"/>
      <point x="461" y="550"/>
      <point x="434" y="501" name="fh02"/>
      <point x="417.5" y="471.0" type="qcurve" smooth="yes" name="inserted"/>
      <point x="401" y="441"/>
      <point x="365" y="376"/>
      <point x="349" y="348" type="qcurve" name="ih04"/>
      <point x="548" y="348" type="line" name="ih05"/>
    </contour>
  </outline>
</glyph>
<glyph name="B" format="1">
  <advance width="534"/>
  <unicode hex="0042"/>
  <outline>
    <contour>
      <point x="43" y="59" type="line" name="sv01"/>
      <point x="96" y="59" type="line" name="dh01"/>
      <point x="177" y="640" type="line" name="sh01"/>
      <point x="125" y="640" type="line" name="sh02"/>
      <point x="133" y="700" type="line" name="at01"/>
      <point x="357" y="700" type="line"/>
      <point x="405" y="700" name="fv01"/>
      <point x="481" y="680" name="fh01"/>
      <point x="506.5" y="659.0" type="qcurve" smooth="yes" name="inserted"/>
      <point x="532" y="638" name="fh02"/>
      <point x="554" y="571"/>
      <point x="547" y="525" type="qcurve" name="sh03"/>
      <point x="539" y="463" name="fh03"/>
      <point x="465" y="369" name="fh04"/>
      <point x="401" y="352" type="qcurve" name="ih01"/>
      <point x="429" y="346"/>
      <point x="479" y="318" name="fh05"/>
      <point x="496.0" y="296.0" type="qcurve" smooth="yes" name="inserted"/>
      <point x="513" y="274" name="fh06"/>
      <point x="529" y="216"/>
      <point x="524" y="180" type="qcurve" name="dh02"/>
      <point x="518" y="135" name="fh07"/>
      <point x="471" y="68" name="fh08"/>
      <point x="437.0" y="45.5" type="qcurve" smooth="yes" name="inserted"/>
      <point x="403" y="23" name="fh09"/>
      <point x="320" y="0"/>
      <point x="277" y="0" type="qcurve"/>
      <point x="35" y="0" type="line" name="sh04"/>
    </contour>
    <contour>
      <point x="195" y="322" type="line" name="ih02"/>
      <point x="158" y="59" type="line" name="sh05"/>
      <point x="280" y="59" type="line"/>
      <point x="314" y="59"/>
      <point x="376" y="75" name="fv02"/>
      <point x="400.5" y="91.0" type="qcurve" smooth="yes" name="inserted"/>
      <point x="425" y="107" name="fv03"/>
      <point x="458" y="156"/>
      <point x="463" y="188" type="qcurve" name="sh07"/>
      <point x="468" y="223"/>
      <point x="444" y="274"/>
      <point x="421.0" y="290.5" type="qcurve" smooth="yes" name="inserted"/>
      <point x="398" y="307"/>
      <point x="335" y="322"/>
      <point x="301" y="322" type="qcurve"/>
    </contour>
    <contour>
      <point x="240" y="640" type="line" name="sh06"/>
      <point x="204" y="382" type="line" name="ih03"/>
      <point x="323" y="382" type="line"/>
      <point x="388" y="382"/>
      <point x="475" y="457" name="fh10"/>
      <point x="483" y="517" type="qcurve" name="sh08"/>
      <point x="488" y="550"/>
      <point x="474" y="597" name="fh11"/>
      <point x="457.0" y="611.5" type="qcurve" smooth="yes" name="inserted"/>
      <point x="440" y="626"/>
      <point x="389" y="640"/>
      <point x="357" y="640" type="qcurve"/>
    </contour>
  </outline>
</glyph>
<glyph name="C" format="1">
  <advance width="610"/>
  <unicode hex="0043"/>
  <outline>
    <contour>
      <point x="592" y="546" type="line" name="sh02"/>
      <point x="603" y="620" type="line" name="sh03"/>
      <point x="576.0" y="634.0" name="inserted"/>
      <point x="516.5" y="648.0"/>
      <point x="484" y="648" type="qcurve" name="sv01"/>
      <point x="423" y="648"/>
      <point x="309" y="601" name="fv01"/>
      <point x="263.0" y="560.0" type="qcurve" smooth="yes" name="inserted"/>
      <point x="217" y="519" name="fh02"/>
      <point x="156" y="410"/>
      <point x="147" y="349" type="qcurve" name="sh04"/>
      <point x="138" y="287"/>
      <point x="169" y="179" name="fh03"/>
      <point x="203.5" y="138.5" type="qcurve" smooth="yes" name="inserted"/>
      <point x="238" y="98" name="fh04"/>
      <point x="338" y="51"/>
      <point x="399" y="51" type="qcurve" name="sv02"/>
      <point x="440" y="51"/>
      <point x="517" y="72" name="fh05"/>
      <point x="553" y="92" type="qcurve" name="sh06"/>
      <point x="581" y="42" type="line" name="sh05"/>
      <point x="537" y="19"/>
      <point x="443" y="-8"/>
      <point x="392" y="-8" type="qcurve" name="ab01"/>
      <point x="318" y="-8"/>
      <point x="196" y="48" name="fh06"/>
      <point x="154.0" y="96.5" type="qcurve" smooth="yes" name="inserted"/>
      <point x="112" y="145" name="fh07"/>
      <point x="74" y="275"/>
      <point x="85" y="349" type="qcurve" name="dh01"/>
      <point x="95" y="423"/>
      <point x="170" y="554"/>
      <point x="225.0" y="602.5" type="qcurve" smooth="yes" name="inserted"/>
      <point x="280" y="651" name="fh08"/>
      <point x="418" y="708"/>
      <point x="492" y="708" type="qcurve" name="at01"/>
      <point x="543" y="708"/>
      <point x="631" y="682"/>
      <point x="668" y="658" type="qcurve" name="dh02"/>
      <point x="652" y="546" type="line" name="sh01"/>
    </contour>
  </outline>
</glyph>
<glyph name="E" format="1">
  <advance width="571"/>
  <unicode hex="0045"/>
  <outline>
    <contour>
      <point x="43" y="59" type="line" name="sv01"/>
      <point x="107" y="59" type="line" name="dh01"/>
      <point x="188" y="640" type="line" name="sh01"/>
      <point x="125" y="640" type="line" name="sh02"/>
      <point x="133" y="700" type="line" name="at01"/>
      <point x="620" y="700" type="line" name="dh02"/>
      <point x="598" y="546" type="line" name="sh03"/>
      <point x="538" y="546" type="line" name="sh04"/>
      <point x="552" y="640" type="line" name="sh05"/>
      <point x="251" y="640" type="line" name="sh07"/>
      <point x="215" y="382" type="line" name="ih01"/>
      <point x="536" y="382" type="line" name="sh08"/>
      <point x="527" y="323" type="line"/>
      <point x="206" y="323" type="line" name="ih02"/>
      <point x="169" y="59" type="line" name="sh06"/>
      <point x="484" y="59" type="line" name="sh11"/>
      <point x="497" y="154" type="line" name="sh10"/>
      <point x="557" y="154" type="line" name="sh09"/>
      <point x="536" y="0" type="line" name="sh12"/>
      <point x="35" y="0" type="line" name="sh13"/>
    </contour>
  </outline>
</glyph>
<glyph name="F" format="1">
  <advance width="557"/>
  <unicode hex="0046"/>
  <outline>
    <contour>
      <point x="43" y="59" type="line" name="sv01"/>
      <point x="107" y="59" type="line" name="dh01"/>
      <point x="188" y="640" type="line" name="sh01"/>
      <point x="125" y="640" type="line" name="sh02"/>
      <point x="133" y="700" type="line" name="at01"/>
      <point x="620" y="700" type="line" name="dh02"/>
      <point x="598" y="546" type="line" name="sh03"/>
      <point x="538" y="546" type="line" name="sh04"/>
      <point x="552" y="640" type="line" name="sh05"/>
      <point x="251" y="640" type="line" name="sh07"/>
      <point x="215" y="382" type="line" name="ih01"/>
      <point x="536" y="382" type="line" name="sh08"/>
      <point x="527" y="323" type="line"/>
      <point x="206" y="323" type="line" name="ih02"/>
      <point x="169" y="59" type="line" name="sh06"/>
      <point x="265" y="59" type="line" name="sh09"/>
      <point x="257" y="0" type="line"/>
      <point x="35" y="0" type="line" name="sh10"/>
    </contour>
  </outline>
</glyph>
<glyph name="K" format="1">
  <advance width="686"/>
  <unicode hex="004B"/>
  <outline>
    <contour>
      <point x="451" y="59" type="line" name="sv02"/>
      <point x="508" y="59" type="line" name="sh02"/>
      <point x="456" y="139"/>
      <point x="353" y="298"/>
      <point x="302" y="378" type="qcurve" name="sh05"/>
      <point x="217" y="308" type="line" name="ih01"/>
      <point x="208" y="245"/>
      <point x="191" y="122"/>
      <point x="182" y="59" type="qcurve" name="sh03"/>
      <point x="265" y="59" type="line" name="sh06"/>
      <point x="257" y="0" type="line"/>
      <point x="35" y="0" type="line" name="sh07"/>
      <point x="43" y="59" type="line" name="sv01"/>
      <point x="120" y="59" type="line" name="dh01"/>
      <point x="202" y="640" type="line" name="sh08"/>
      <point x="125" y="640" type="line" name="sh09"/>
      <point x="133" y="700" type="line" name="at01"/>
      <point x="341" y="700" type="line" name="sh10"/>
      <point x="332" y="640" type="line"/>
      <point x="264" y="640" type="line" name="sh04"/>
      <point x="231" y="406" type="line"/>
      <point x="229" y="398"/>
      <point x="226" y="383"/>
      <point x="224" y="375" type="qcurve" name="ih03"/>
      <point x="246" y="397" type="line"/>
      <point x="535" y="640" type="line" name="sh11"/>
      <point x="490" y="640" type="line" name="sh12"/>
      <point x="498" y="700" type="line" name="sv03"/>
      <point x="706" y="700" type="line" name="sh13"/>
      <point x="698" y="640" type="line"/>
      <point x="613" y="640" type="line" name="dh02"/>
      <point x="349" y="418" type="line" name="ih02"/>
      <point x="407" y="328" name="fh01"/>
      <point x="523" y="150" name="fh02"/>
      <point x="582" y="59" type="qcurve" name="sh01"/>
      <point x="659" y="59" type="line" name="sh14"/>
      <point x="651" y="0" type="line"/>
      <point x="443" y="0" type="line" name="sh15"/>
    </contour>
  </outline>
</glyph>
<glyph name="L" format="1">
  <advance width="569"/>
  <unicode hex="004C"/>
  <outline>
    <contour>
      <point x="43" y="59" type="line" name="sv01"/>
      <point x="105" y="59" type="line" name="dh01"/>
      <point x="187" y="640" type="line" name="sh01"/>
      <point x="125" y="640" type="line" name="sh02"/>
      <point x="133" y="700" type="line" name="at01"/>
      <point x="341" y="700" type="line" name="sh05"/>
      <point x="332" y="640" type="line"/>
      <point x="249" y="640" type="line" name="sh04"/>
      <point x="168" y="59" type="line" name="sh03"/>
      <point x="483" y="59" type="line" name="sh07"/>
      <point x="496" y="154" type="line" name="sh06"/>
      <point x="555" y="154" type="line" name="dh02"/>
      <point x="534" y="0" type="line" name="sh08"/>
      <point x="35" y="0" type="line" name="sh09"/>
    </contour>
  </outline>
</glyph>
<glyph name="M" format="1">
  <advance width="971"/>
  <unicode hex="004D"/>
  <outline>
    <contour>
      <point x="925" y="700" type="qcurve" name="sh02"/>
      <point x="1033" y="700" type="line" name="sh03"/>
      <point x="1025" y="640" type="line"/>
      <point x="941" y="640" type="line" name="sh01"/>
      <point x="859" y="59" type="line" name="dh02"/>
      <point x="944" y="59" type="line" name="sh04"/>
      <point x="936" y="0" type="line"/>
      <point x="715" y="0" type="line" name="sh06"/>
      <point x="723" y="59" type="line" name="sv02"/>
      <point x="797" y="59" type="line" name="sh05"/>
      <point x="862" y="522" type="line" name="fh01"/>
      <point x="863" y="528"/>
      <point x="867" y="553"/>
      <point x="869" y="558" type="qcurve" name="sh07"/>
      <point x="862" y="550"/>
      <point x="847" y="532"/>
      <point x="839" y="523" type="qcurve"/>
      <point x="808" y="487" name="fh02"/>
      <point x="726" y="396" name="fv01"/>
      <point x="681.5" y="347.5" type="qcurve" smooth="yes" name="inserted"/>
      <point x="637" y="299" name="fh03"/>
      <point x="546" y="200" name="fh04"/>
      <point x="506" y="156" type="qcurve" name="sh10"/>
      <point x="460" y="229" name="fh05"/>
      <point x="393" y="337" name="fh06"/>
      <point x="369.0" y="375.5" type="qcurve" smooth="yes" name="inserted"/>
      <point x="345" y="414" name="fh07"/>
      <point x="313" y="466"/>
      <point x="302.0" y="483.5" type="qcurve" smooth="yes" name="inserted"/>
      <point x="291" y="501"/>
      <point x="276" y="525" name="fh08"/>
      <point x="269" y="536" type="qcurve" name="fh09"/>
      <point x="257" y="558" type="line" name="sh12"/>
      <point x="256" y="549"/>
      <point x="255" y="532"/>
      <point x="254" y="522" type="qcurve" name="fh10"/>
      <point x="189" y="59" type="line" name="sh11"/>
      <point x="265" y="59" type="line" name="sh13"/>
      <point x="257" y="0" type="line"/>
      <point x="35" y="0" type="line" name="sh14"/>
      <point x="43" y="59" type="line" name="sv01"/>
      <point x="127" y="59" type="line" name="dh01"/>
      <point x="209" y="640" type="line" name="sh08"/>
      <point x="125" y="640" type="line" name="sh15"/>
      <point x="133" y="700" type="line" name="at01"/>
      <point x="241" y="700" type="line" name="sh09"/>
      <point x="265" y="661" name="fh11"/>
      <point x="333" y="554" name="fh12"/>
      <point x="370.5" y="494.5" type="qcurve" smooth="yes" name="inserted"/>
      <point x="408" y="435" name="fh13"/>
      <point x="486" y="311" name="fh14"/>
      <point x="521" y="256" type="qcurve" name="ih01"/>
      <point x="622" y="367" name="fh15"/>
      <point x="823" y="589" name="fh16"/>
    </contour>
  </outline>
</glyph>
<glyph name="O" format="1">
  <advance width="786"/>
  <unicode hex="004F"/>
  <outline>
    <contour>
      <point x="85" y="349" type="qcurve" name="dh01"/>
      <point x="95" y="423" name="fh01"/>
      <point x="169" y="554" name="fh02"/>
      <point x="224.5" y="602.5" type="qcurve" smooth="yes" name="inserted"/>
      <point x="280" y="651" name="fh03"/>
      <point x="418" y="708"/>
      <point x="492" y="708" type="qcurve" name="at01"/>
      <point x="566" y="708"/>
      <point x="688" y="651" name="fh04"/>
      <point x="730.0" y="602.5" type="qcurve" smooth="yes" name="inserted"/>
      <point x="772" y="554"/>
      <point x="811" y="423"/>
      <point x="801" y="349" type="qcurve" name="dh02"/>
      <point x="790" y="275" name="fh05"/>
      <point x="715" y="145" name="fh06"/>
      <point x="659.5" y="96.5" type="qcurve" smooth="yes" name="inserted"/>
      <point x="604" y="48" name="fh07"/>
      <point x="466" y="-8"/>
      <point x="392" y="-8" type="qcurve" name="ab01"/>
      <point x="318" y="-8"/>
      <point x="196" y="48" name="fh08"/>
      <point x="154.0" y="96.5" type="qcurve" smooth="yes" name="inserted"/>
      <point x="112" y="145"/>
      <point x="74" y="275"/>
    </contour>
    <contour>
      <point x="147" y="349" type="qcurve" name="sh01"/>
      <point x="138" y="287"/>
      <point x="169" y="179" name="fh09"/>
      <point x="203.5" y="138.5" type="qcurve" smooth="yes" name="inserted"/>
      <point x="238" y="98" name="fh10"/>
      <point x="339" y="51"/>
      <point x="400" y="51" type="qcurve" name="sv01"/>
      <point x="461" y="51"/>
      <point x="575" y="98" name="fh11"/>
      <point x="621.0" y="138.5" type="qcurve" smooth="yes" name="inserted"/>
      <point x="667" y="179" name="fh12"/>
      <point x="730" y="287"/>
      <point x="739" y="349" type="qcurve" name="sh02"/>
      <point x="747" y="410"/>
      <point x="715" y="519" name="fh13"/>
      <point x="680.5" y="560.0" type="qcurve" smooth="yes" name="inserted"/>
      <point x="646" y="601" name="fh14"/>
      <point x="545" y="648" name="fh15"/>
      <point x="484" y="648" type="qcurve" name="sv02"/>
      <point x="423" y="648"/>
      <point x="309" y="601" name="fh16"/>
      <point x="263.0" y="560.0" type="qcurve" smooth="yes" name="inserted"/>
      <point x="217" y="519" name="fh17"/>
      <point x="156" y="410"/>
    </contour>
  </outline>
</glyph>
<glyph name="U" format="1">
  <advance width="712"/>
  <unicode hex="0055"/>
  <outline>
    <contour>
      <point x="134" y="700" type="line" name="at01"/>
      <point x="356" y="700" type="line" name="sh02"/>
      <point x="347" y="640" type="line"/>
      <point x="265" y="640" type="line" name="sh01"/>
      <point x="207" y="229" type="line" name="sh03"/>
      <point x="201" y="186"/>
      <point x="219" y="120" name="fh01"/>
      <point x="240.0" y="97.5" type="qcurve" smooth="yes" name="inserted"/>
      <point x="261" y="75" name="fh02"/>
      <point x="324" y="51"/>
      <point x="364" y="51" type="qcurve" name="sv01"/>
      <point x="403" y="51"/>
      <point x="473" y="75"/>
      <point x="500.5" y="97.5" type="qcurve" smooth="yes" name="inserted"/>
      <point x="528" y="120"/>
      <point x="565" y="186"/>
      <point x="571" y="229" type="qcurve" name="sh05"/>
      <point x="629" y="640" type="line" name="sh04"/>
      <point x="547" y="640" type="line" name="sh06"/>
      <point x="555" y="700" type="line" name="sv02"/>
      <point x="776" y="700" type="line" name="sh07"/>
      <point x="768" y="640" type="line"/>
      <point x="691" y="640" type="line" name="dh02"/>
      <point x="632" y="226" type="line" name="sh08"/>
      <point x="624" y="169" name="fh03"/>
      <point x="575" y="81" name="fh04"/>
      <point x="538.0" y="51.5" type="qcurve" smooth="yes" name="inserted"/>
      <point x="501" y="22" name="fh05"/>
      <point x="408" y="-8"/>
      <point x="356" y="-8" type="qcurve" name="ab01"/>
      <point x="303" y="-8"/>
      <point x="218" y="22" name="fh06"/>
      <point x="189.5" y="51.5" type="qcurve" smooth="yes" name="inserted"/>
      <point x="161" y="81" name="fh07"/>
      <point x="136" y="169"/>
      <point x="144" y="226" type="qcurve" name="sh09"/>
      <point x="203" y="640" type="line" name="dh01"/>
      <point x="126" y="640" type="line" name="sh10"/>
    </contour>
  </outline>
</glyph>
<glyph name="V" format="1">
  <advance width="820"/>
  <unicode hex="0056"/>
  <outline>
    <contour>
      <point x="137" y="700" type="line" name="at01"/>
      <point x="359" y="700" type="line" name="sh02"/>
      <point x="350" y="640" type="line"/>
      <point x="277" y="640" type="line" name="sh01"/>
      <point x="313" y="514"/>
      <point x="384" y="263" name="fh01"/>
      <point x="420" y="137" type="qcurve"/>
      <point x="425" y="106" type="line" name="sh03"/>
      <point x="438" y="137" type="line"/>
      <point x="510" y="263"/>
      <point x="650" y="513"/>
      <point x="721" y="640" type="qcurve" name="sh04"/>
      <point x="657" y="640" type="line" name="sh05"/>
      <point x="666" y="700" type="line" name="sv01"/>
      <point x="887" y="700" type="line" name="sh06"/>
      <point x="879" y="640" type="line"/>
      <point x="785" y="640" type="line" name="dh02"/>
      <point x="690" y="471"/>
      <point x="500" y="137" name="fh02"/>
      <point x="406" y="-32" type="qcurve" name="ih01"/>
      <point x="214" y="640" type="line" name="dh01"/>
      <point x="129" y="640" type="line" name="sh07"/>
    </contour>
  </outline>
</glyph>
<glyph name="X" format="1">
  <advance width="699"/>
  <unicode hex="0058"/>
  <outline>
    <contour>
      <point x="133" y="700" type="line" name="at01"/>
      <point x="355" y="700" type="line" name="sh03"/>
      <point x="346" y="640" type="line"/>
      <point x="290" y="640" type="line" name="sh02"/>
      <point x="317" y="586"/>
      <point x="372" y="482"/>
      <point x="398" y="429" type="qcurve"/>
      <point x="407" y="406" type="line" name="ih03"/>
      <point x="421" y="429" type="line"/>
      <point x="588" y="640" type="line" name="sh04"/>
      <point x="532" y="640" type="line" name="sh05"/>
      <point x="540" y="700" type="line" name="sv01"/>
      <point x="762" y="700" type="line" name="sh06"/>
      <point x="753" y="640" type="line"/>
      <point x="664" y="640" type="line" name="dh02"/>
      <point x="607" y="568" name="fh01"/>
      <point x="494" y="424" name="fh02"/>
      <point x="437" y="352" type="qcurve" name="ih02"/>
      <point x="474.0" y="279.5" name="inserted"/>
      <point x="549.5" y="133.0"/>
      <point x="588" y="59" type="qcurve" name="sh07"/>
      <point x="672" y="59" type="line" name="sh08"/>
      <point x="664" y="0" type="line"/>
      <point x="442" y="0" type="line" name="sh10"/>
      <point x="450" y="59" type="line" name="sv03"/>
      <point x="510" y="59" type="line" name="sh09"/>
      <point x="405" y="264" type="line"/>
      <point x="400" y="274"/>
      <point x="393" y="295"/>
      <point x="388" y="305" type="qcurve" name="ih04"/>
      <point x="373" y="281" type="line"/>
      <point x="328" y="225"/>
      <point x="243" y="115" name="fh03"/>
      <point x="199" y="59" type="qcurve" name="sh11"/>
      <point x="265" y="59" type="line" name="sh12"/>
      <point x="257" y="0" type="line"/>
      <point x="35" y="0" type="line" name="sh13"/>
      <point x="43" y="59" type="line" name="sv02"/>
      <point x="122" y="59" type="line" name="dh01"/>
      <point x="358" y="358" type="line" name="ih01"/>
      <point x="214" y="640" type="line" name="sh01"/>
      <point x="125" y="640" type="line" name="sh14"/>
    </contour>
  </outline>
</glyph>
<glyph name="Y" format="1">
  <advance width="768"/>
  <unicode hex="0059"/>
  <outline>
    <contour>
      <point x="284" y="59" type="line" name="sv01"/>
      <point x="354" y="59" type="line" name="ah01"/>
      <point x="383" y="268" type="line" name="sh01"/>
      <point x="340" y="361"/>
      <point x="256" y="546"/>
      <point x="214" y="640" type="qcurve" name="sh02"/>
      <point x="125" y="640" type="line" name="sh03"/>
      <point x="133" y="700" type="line" name="at01"/>
      <point x="355" y="700" type="line" name="sh05"/>
      <point x="346" y="640" type="line"/>
      <point x="290" y="640" type="line" name="sh04"/>
      <point x="323" y="568" name="fh01"/>
      <point x="389" y="425" name="fh02"/>
      <point x="421" y="353" type="qcurve"/>
      <point x="428" y="324" type="line" name="ih01"/>
      <point x="429" y="324" type="line"/>
      <point x="445" y="353" type="line"/>
      <point x="656" y="640" type="line" name="sh09"/>
      <point x="601" y="640" type="line" name="sh10"/>
      <point x="609" y="700" type="line" name="sv02"/>
      <point x="831" y="700" type="line" name="sh11"/>
      <point x="822" y="640" type="line"/>
      <point x="732" y="640" type="line" name="sh08"/>
      <point x="663" y="546"/>
      <point x="528" y="361" name="fh03"/>
      <point x="459" y="267" type="qcurve" name="sh07"/>
      <point x="430" y="59" type="line" name="sh06"/>
      <point x="505" y="59" type="line" name="sh12"/>
      <point x="497" y="0" type="line"/>
      <point x="276" y="0" type="line" name="sh13"/>
    </contour>
  </outline>
</glyph>
<glyph name="backslash" format="1">
  <advance width="365"/>
  <unicode hex="005C"/>
  <outline>
    <contour>
      <point x="128" y="736" type="line" name="sh01"/>
      <point x="171" y="546"/>
      <point x="256" y="171"/>
      <point x="299" y="-19" type="qcurve" name="ah01"/>
      <point x="229" y="-19" type="line" name="sh02"/>
      <point x="186" y="171"/>
      <point x="101" y="546"/>
      <point x="58" y="736" type="qcurve" name="sh03"/>
    </contour>
  </outline>
</glyph>
<glyph name="bracketright" format="1">
  <advance width="342"/>
  <unicode hex="005D"/>
  <outline>
    <contour>
      <point x="313" y="746" type="line" name="sh01"/>
      <point x="188" y="-149" type="line" name="ah01"/>
      <point x="5" y="-149" type="line" name="sh02"/>
      <point x="13" y="-88" type="line"/>
      <point x="133" y="-88" type="line" name="sh03"/>
      <point x="242" y="685" type="line" name="sh04"/>
      <point x="121" y="685" type="line" name="sh05"/>
      <point x="130" y="746" type="line"/>
    </contour>
  </outline>
</glyph>
<glyph name="underscore" format="1">
  <advance width="600"/>
  <unicode hex="005F"/>
  <outline>
    <contour>
      <point x="495" y="0" type="line"/>
      <point x="95" y="0" type="line" name="sh01"/>
      <point x="103" y="61" type="line" name="sv01"/>
      <point x="503" y="61" type="line" name="sh02"/>
    </contour>
  </outline>
</glyph>
<glyph name="a" format="1">
  <advance width="542"/>
  <unicode hex="0061"/>
  <outline>
    <contour>
      <point x="62" y="187" type="qcurve" name="dh01"/>
      <point x="68" y="227"/>
      <point x="108" y="298" name="fh01"/>
      <point x="139.0" y="325.0" type="qcurve" smooth="yes" name="inserted"/>
      <point x="170" y="352" name="fh02"/>
      <point x="247" y="384"/>
      <point x="289" y="384" type="qcurve" name="at01"/>
      <point x="317" y="384"/>
      <point x="363" y="368" name="fh03"/>
      <point x="380.5" y="356.0" type="qcurve" smooth="yes" name="inserted"/>
      <point x="398" y="344" name="fh04"/>
      <point x="419" y="318" name="fh05"/>
      <point x="421" y="308" type="qcurve" name="sh02"/>
      <point x="423" y="324" name="fh06"/>
      <point x="432" y="358"/>
      <point x="434" y="375" type="qcurve" name="sh03"/>
      <point x="485" y="375" type="line" name="sh04"/>
      <point x="441" y="59" type="line" name="dh02"/>
      <point x="516" y="59" type="line" name="sh05"/>
      <point x="508" y="0" type="line"/>
      <point x="378" y="0" type="line" name="sh01"/>
      <point x="382" y="30" type="line"/>
      <point x="384" y="38"/>
      <point x="385" y="55"/>
      <point x="387" y="63" type="qcurve" name="ih01"/>
      <point x="381" y="53" name="fh07"/>
      <point x="354" y="29" name="fh08"/>
      <point x="334.5" y="18.0" type="qcurve" smooth="yes" name="inserted"/>
      <point x="315" y="7" name="fh09"/>
      <point x="264" y="-8"/>
      <point x="234" y="-8" type="qcurve" name="ab01"/>
      <point x="192" y="-8"/>
      <point x="124" y="23"/>
      <point x="100.5" y="49.5" type="qcurve" smooth="yes" name="inserted"/>
      <point x="77" y="76"/>
      <point x="56" y="147"/>
    </contour>
    <contour>
      <point x="125" y="188" type="qcurve" name="sh06"/>
      <point x="121" y="159"/>
      <point x="134" y="110" name="fh10"/>
      <point x="150.0" y="92.0" type="qcurve" smooth="yes" name="inserted"/>
      <point x="166" y="74" name="fh11"/>
      <point x="213" y="53"/>
      <point x="242" y="53" type="qcurve" name="sv01"/>
      <point x="271" y="53"/>
      <point x="324" y="74" name="fh12"/>
      <point x="345.0" y="92.0" type="qcurve" smooth="yes" name="inserted"/>
      <point x="366" y="110" name="fh13"/>
      <point x="393" y="159"/>
      <point x="397" y="188" type="qcurve" name="ih02"/>
      <point x="401" y="216" name="fh14"/>
      <point x="388" y="266" name="fh15"/>
      <point x="372.0" y="284.0" type="qcurve" smooth="yes" name="inserted"/>
      <point x="356" y="302" name="fh16"/>
      <point x="309" y="323"/>
      <point x="280" y="323" type="qcurve" name="sv02"/>
      <point x="250" y="323"/>
      <point x="197" y="302" name="fh17"/>
      <point x="176.5" y="284.0" type="qcurve" smooth="yes" name="inserted"/>
      <point x="156" y="266"/>
      <point x="129" y="216"/>
    </contour>
  </outline>
</glyph>
<glyph name="c" format="1">
  <advance width="394"/>
  <unicode hex="0063"/>
  <outline>
    <contour>
      <point x="364" y="35" type="line" name="sh01"/>
      <point x="335" y="15"/>
      <point x="269" y="-8"/>
      <point x="233" y="-8" type="qcurve" name="ab01"/>
      <point x="192" y="-8"/>
      <point x="124" y="23"/>
      <point x="100.5" y="49.5" type="qcurve" smooth="yes" name="inserted"/>
      <point x="77" y="76"/>
      <point x="56" y="147"/>
      <point x="62" y="188" type="qcurve" name="dh01"/>
      <point x="68" y="228"/>
      <point x="109" y="300" name="fh01"/>
      <point x="139.5" y="326.5" type="qcurve" smooth="yes" name="inserted"/>
      <point x="170" y="353" name="fh02"/>
      <point x="247" y="384"/>
      <point x="288" y="384" type="qcurve" name="at01"/>
      <point x="324" y="384"/>
      <point x="385" y="361"/>
      <point x="408" y="341" type="qcurve" name="dh02"/>
      <point x="392" y="233" type="line" name="sh02"/>
      <point x="336" y="233" type="line" name="sh03"/>
      <point x="346" y="304" type="line" name="sh04"/>
      <point x="331.5" y="313.5" name="inserted"/>
      <point x="298.0" y="323.0"/>
      <point x="279" y="323" type="qcurve" name="sv01"/>
      <point x="250" y="323"/>
      <point x="197" y="302" name="fh03"/>
      <point x="176.5" y="284.0" type="qcurve" smooth="yes" name="inserted"/>
      <point x="156" y="266" name="fh04"/>
      <point x="128" y="216"/>
      <point x="124" y="188" type="qcurve" name="sh05"/>
      <point x="120" y="159"/>
      <point x="134" y="110"/>
      <point x="149.5" y="92.0" type="qcurve" smooth="yes" name="inserted"/>
      <point x="165" y="74" name="fh05"/>
      <point x="212" y="53"/>
      <point x="241" y="53" type="qcurve" name="sv02"/>
      <point x="267" y="53"/>
      <point x="312" y="68"/>
      <point x="331" y="82" type="qcurve" name="sh06"/>
    </contour>
  </outline>
</glyph>
<glyph name="d" format="1">
  <advance width="542"/>
  <unicode hex="0064"/>
  <outline>
    <contour>
      <point x="382" y="30" type="line"/>
      <point x="384" y="38"/>
      <point x="385" y="55"/>
      <point x="387" y="63" type="qcurve" name="ih01"/>
      <point x="381" y="53"/>
      <point x="354" y="29" name="fh01"/>
      <point x="334.5" y="18.0" type="qcurve" smooth="yes" name="inserted"/>
      <point x="315" y="7" name="fh02"/>
      <point x="264" y="-8"/>
      <point x="234" y="-8" type="qcurve" name="ab01"/>
      <point x="192" y="-8"/>
      <point x="124" y="23"/>
      <point x="100.5" y="50.0" type="qcurve" smooth="yes" name="inserted"/>
      <point x="77" y="77"/>
      <point x="56" y="148"/>
      <point x="62" y="188" type="qcurve" name="dh01"/>
      <point x="68" y="228" name="fh03"/>
      <point x="108" y="299" name="fh04"/>
      <point x="139.0" y="326.0" type="qcurve" smooth="yes" name="inserted"/>
      <point x="170" y="353" name="fh05"/>
      <point x="247" y="384"/>
      <point x="289" y="384" type="qcurve" name="at02"/>
      <point x="316" y="384"/>
      <point x="362" y="369" name="fh06"/>
      <point x="379.5" y="357.5" type="qcurve" smooth="yes" name="inserted"/>
      <point x="397" y="346" name="fh07"/>
      <point x="418" y="320" name="fh08"/>
      <point x="421" y="310" type="qcurve" name="ih02"/>
      <point x="422" y="324"/>
      <point x="422" y="352"/>
      <point x="423" y="367" type="qcurve"/>
      <point x="468" y="690" type="line" name="sh02"/>
      <point x="400" y="690" type="line" name="sh04"/>
      <point x="408" y="750" type="line" name="at01"/>
      <point x="538" y="750" type="line" name="sh03"/>
      <point x="441" y="59" type="line" name="dh02"/>
      <point x="516" y="59" type="line" name="sh05"/>
      <point x="508" y="0" type="line"/>
      <point x="378" y="0" type="line" name="sh01"/>
    </contour>
    <contour>
      <point x="125" y="188" type="qcurve" name="sh06"/>
      <point x="121" y="159"/>
      <point x="134" y="110"/>
      <point x="150.0" y="92.0" type="qcurve" smooth="yes" name="inserted"/>
      <point x="166" y="74" name="fh09"/>
      <point x="213" y="53"/>
      <point x="242" y="53" type="qcurve" name="sv01"/>
      <point x="271" y="53"/>
      <point x="324" y="74" name="fh10"/>
      <point x="345.0" y="92.0" type="qcurve" smooth="yes" name="inserted"/>
      <point x="366" y="110" name="fv01"/>
      <point x="393" y="159"/>
      <point x="397" y="188" type="qcurve" name="ih03"/>
      <point x="401" y="216"/>
      <point x="388" y="266" name="fh11"/>
      <point x="372.0" y="284.0" type="qcurve" smooth="yes" name="inserted"/>
      <point x="356" y="302"/>
      <point x="309" y="323"/>
      <point x="280" y="323" type="qcurve" name="sv02"/>
      <point x="250" y="323"/>
      <point x="197" y="302" name="fh12"/>
      <point x="176.5" y="284.0" type="qcurve" smooth="yes" name="inserted"/>
      <point x="156" y="266" name="fh13"/>
      <point x="129" y="216"/>
    </contour>
  </outline>
</glyph>
<glyph name="g" format="1">
  <advance width="543"/>
  <unicode hex="0067"/>
  <outline>
    <contour>
      <point x="468" y="375" type="qcurve" name="sh03"/>
      <point x="595" y="375" type="line" name="sh04"/>
      <point x="586" y="315" type="line"/>
      <point x="511" y="315" type="line" name="sh05"/>
      <point x="460" y="-47" type="line" name="dh02"/>
      <point x="454" y="-92"/>
      <point x="413" y="-166" name="fh01"/>
      <point x="383.0" y="-193.0" type="qcurve" smooth="yes" name="inserted"/>
      <point x="353" y="-220" name="fh02"/>
      <point x="278" y="-250"/>
      <point x="238" y="-250" type="qcurve" name="ab02"/>
      <point x="193" y="-249"/>
      <point x="115" y="-215"/>
      <point x="89" y="-190" type="qcurve" name="sh06"/>
      <point x="138" y="-140" type="line" name="sh07"/>
      <point x="157" y="-160" name="fh03"/>
      <point x="213" y="-186"/>
      <point x="245" y="-186" type="qcurve" name="sv01"/>
      <point x="273" y="-186"/>
      <point x="325" y="-164"/>
      <point x="346.0" y="-144.5" type="qcurve" smooth="yes" name="inserted"/>
      <point x="367" y="-125" name="fh04"/>
      <point x="394" y="-72"/>
      <point x="399" y="-40" type="qcurve" name="sh01"/>
      <point x="409" y="30" type="line" name="ih01"/>
      <point x="411" y="38"/>
      <point x="417" y="54"/>
      <point x="419" y="62" type="qcurve" name="iv01"/>
      <point x="412" y="51"/>
      <point x="384" y="26" name="fh05"/>
      <point x="364.5" y="16.0" type="qcurve" smooth="yes" name="inserted"/>
      <point x="345" y="6" name="fh06"/>
      <point x="296" y="-7"/>
      <point x="268" y="-7" type="qcurve" name="ab01"/>
      <point x="226" y="-7"/>
      <point x="158" y="24" name="fh07"/>
      <point x="134.5" y="50.5" type="qcurve" smooth="yes" name="inserted"/>
      <point x="111" y="77"/>
      <point x="90" y="147"/>
      <point x="96" y="187" type="qcurve" name="dh01"/>
      <point x="102" y="227"/>
      <point x="142" y="298" name="fh08"/>
      <point x="173.0" y="325.0" type="qcurve" smooth="yes" name="inserted"/>
      <point x="204" y="352" name="fh09"/>
      <point x="281" y="384"/>
      <point x="323" y="384" type="qcurve" name="at01"/>
      <point x="351" y="384"/>
      <point x="397" y="368" name="fh10"/>
      <point x="414.5" y="356.0" type="qcurve" smooth="yes" name="inserted"/>
      <point x="432" y="344" name="fh11"/>
      <point x="453" y="318" name="fh12"/>
      <point x="455" y="308" type="qcurve" name="sh02"/>
      <point x="457" y="324"/>
      <point x="466" y="358"/>
    </contour>
    <contour>
      <point x="159" y="188" type="qcurve" name="sh08"/>
      <point x="155" y="159"/>
      <point x="168" y="110" name="fh13"/>
      <point x="184.0" y="92.0" type="qcurve" smooth="yes" name="inserted"/>
      <point x="200" y="74" name="fh14"/>
      <point x="247" y="53"/>
      <point x="276" y="53" type="qcurve" name="sv02"/>
      <point x="305" y="53"/>
      <point x="358" y="74" name="fh15"/>
      <point x="379.0" y="92.0" type="qcurve" smooth="yes" name="inserted"/>
      <point x="400" y="110" name="fh16"/>
      <point x="427" y="159"/>
      <point x="431" y="188" type="qcurve" name="ih02"/>
      <point x="435" y="216" name="mh01"/>
      <point x="422" y="266" name="fh17"/>
      <point x="406.0" y="284.0" type="qcurve" smooth="yes" name="inserted"/>
      <point x="390" y="302" name="fh18"/>
      <point x="343" y="323"/>
      <point x="314" y="323" type="qcurve" name="sv03"/>
      <point x="284" y="323"/>
      <point x="231" y="302"/>
      <point x="210.5" y="284.0" type="qcurve" smooth="yes" name="inserted"/>
      <point x="190" y="266"/>
      <point x="163" y="216"/>
    </contour>
  </outline>
</glyph>
<glyph name="p" format="1">
  <advance width="543"/>
  <unicode hex="0070"/>
  <outline>
    <contour>
      <point x="5" y="-191" type="line" name="sv01"/>
      <point x="72" y="-191" type="line" name="dh01"/>
      <point x="143" y="315" type="line" name="sh01"/>
      <point x="68" y="315" type="line" name="sh02"/>
      <point x="78" y="375" type="line" name="at02"/>
      <point x="203" y="375" type="line" name="sh05"/>
      <point x="201" y="358"/>
      <point x="198" y="324"/>
      <point x="196" y="307" type="qcurve" name="sh04"/>
      <point x="202" y="317"/>
      <point x="231" y="344" name="fv01"/>
      <point x="252.0" y="355.5" type="qcurve" smooth="yes" name="inserted"/>
      <point x="273" y="367"/>
      <point x="324" y="383"/>
      <point x="351" y="383" type="qcurve" name="at01"/>
      <point x="393" y="383" name="fh01"/>
      <point x="461" y="352"/>
      <point x="484.0" y="325.5" type="qcurve" smooth="yes" name="inserted"/>
      <point x="507" y="299" name="fh02"/>
      <point x="528" y="228"/>
      <point x="523" y="188" type="qcurve" name="dh02"/>
      <point x="517" y="147"/>
      <point x="476" y="76" name="fh03"/>
      <point x="445.0" y="49.0" type="qcurve" smooth="yes" name="inserted"/>
      <point x="414" y="22" name="fh04"/>
      <point x="338" y="-9"/>
      <point x="296" y="-9" type="qcurve" name="ab01"/>
      <point x="267" y="-9"/>
      <point x="221" y="5"/>
      <point x="204.0" y="15.5" type="qcurve" smooth="yes" name="inserted"/>
      <point x="187" y="26" name="fv02"/>
      <point x="166" y="50"/>
      <point x="163" y="61" type="qcurve" name="ih01"/>
      <point x="164" y="53"/>
      <point x="165" y="39"/>
      <point x="166" y="32" type="qcurve"/>
      <point x="134" y="-191" type="line" name="sh03"/>
      <point x="213" y="-191" type="line" name="sh06"/>
      <point x="205" y="-250" type="line"/>
      <point x="-1" y="-250" type="line" name="sh07"/>
    </contour>
    <contour>
      <point x="460" y="188" type="qcurve" name="sh08"/>
      <point x="464" y="216"/>
      <point x="450" y="265"/>
      <point x="434.5" y="283.0" type="qcurve" smooth="yes" name="inserted"/>
      <point x="419" y="301" name="fh05"/>
      <point x="372" y="322"/>
      <point x="343" y="322" type="qcurve" name="sv02"/>
      <point x="313" y="322"/>
      <point x="260" y="301"/>
      <point x="239.5" y="283.0" type="qcurve" smooth="yes" name="inserted"/>
      <point x="219" y="265" name="fh06"/>
      <point x="192" y="216" name="fh07"/>
      <point x="188" y="188" type="qcurve" name="ih02"/>
      <point x="183" y="159"/>
      <point x="197" y="110" name="fh08"/>
      <point x="212.5" y="91.5" type="qcurve" smooth="yes" name="inserted"/>
      <point x="228" y="73" name="fh09"/>
      <point x="275" y="52"/>
      <point x="304" y="52" type="qcurve" name="sv03"/>
      <point x="333" y="52"/>
      <point x="386" y="73" name="fh10"/>
      <point x="407.0" y="91.5" type="qcurve" smooth="yes" name="inserted"/>
      <point x="428" y="110" name="fh11"/>
      <point x="456" y="159"/>
    </contour>
  </outline>
</glyph>
<glyph name="q" format="1">
  <advance width="545"/>
  <unicode hex="0071"/>
  <outline>
    <contour>
      <point x="298" y="-191" type="line" name="sv01"/>
      <point x="378" y="-191" type="line" name="sh01"/>
      <point x="409" y="32" type="line"/>
      <point x="411" y="39"/>
      <point x="417" y="53"/>
      <point x="420" y="61" type="qcurve" name="ih01"/>
      <point x="413" y="50"/>
      <point x="385" y="26" name="fh01"/>
      <point x="365.0" y="15.5" type="qcurve" smooth="yes" name="inserted"/>
      <point x="345" y="5" name="fv01"/>
      <point x="295" y="-9"/>
      <point x="267" y="-9" type="qcurve" name="ab01"/>
      <point x="225" y="-9"/>
      <point x="157" y="22" name="fv02"/>
      <point x="134.0" y="49.0" type="qcurve" smooth="yes" name="inserted"/>
      <point x="111" y="76"/>
      <point x="90" y="147"/>
      <point x="96" y="188" type="qcurve" name="dh01"/>
      <point x="102" y="228" name="fh02"/>
      <point x="142" y="299" name="fh03"/>
      <point x="173.0" y="325.5" type="qcurve" smooth="yes" name="inserted"/>
      <point x="204" y="352" name="fh04"/>
      <point x="281" y="383"/>
      <point x="323" y="383" type="qcurve" name="at01"/>
      <point x="350" y="383"/>
      <point x="396" y="367" name="fh05"/>
      <point x="413.5" y="355.5" type="qcurve" smooth="yes" name="inserted"/>
      <point x="431" y="344" name="fh06"/>
      <point x="452" y="317" name="fh07"/>
      <point x="455" y="307" type="qcurve" name="sh02"/>
      <point x="457" y="324"/>
      <point x="466" y="358"/>
      <point x="468" y="375" type="qcurve" name="sh03"/>
      <point x="597" y="375" type="line" name="sh04"/>
      <point x="589" y="315" type="line"/>
      <point x="511" y="315" type="line" name="sh05"/>
      <point x="440" y="-191" type="line" name="dh02"/>
      <point x="506" y="-191" type="line" name="sh06"/>
      <point x="498" y="-250" type="line"/>
      <point x="290" y="-250" type="line" name="sh07"/>
    </contour>
    <contour>
      <point x="159" y="188" type="qcurve" name="sh08"/>
      <point x="155" y="159"/>
      <point x="168" y="110" name="fh08"/>
      <point x="184.0" y="91.5" type="qcurve" smooth="yes" name="inserted"/>
      <point x="200" y="73" name="fh09"/>
      <point x="247" y="52"/>
      <point x="276" y="52" type="qcurve" name="sv02"/>
      <point x="305" y="52"/>
      <point x="358" y="73" name="fh10"/>
      <point x="379.0" y="91.5" type="qcurve" smooth="yes" name="inserted"/>
      <point x="400" y="110" name="fh11"/>
      <point x="427" y="159"/>
      <point x="431" y="188" type="qcurve" name="ih02"/>
      <point x="435" y="216"/>
      <point x="422" y="265" name="fh12"/>
      <point x="406.0" y="283.0" type="qcurve" smooth="yes" name="inserted"/>
      <point x="390" y="301" name="fh13"/>
      <point x="343" y="322"/>
      <point x="314" y="322" type="qcurve" name="sv03"/>
      <point x="284" y="322"/>
      <point x="231" y="301"/>
      <point x="210.5" y="283.0" type="qcurve" smooth="yes" name="inserted"/>
      <point x="190" y="265"/>
      <point x="163" y="216"/>
    </contour>
  </outline>
</glyph>
<glyph name="s" format="1">
  <advance width="327"/>
  <unicode hex="0073"/>
  <outline>
    <contour>
      <point x="121" y="111" type="line" name="sh03"/>
      <point x="115" y="66" type="line" name="sh04"/>
      <point x="129" y="57"/>
      <point x="161" y="53"/>
      <point x="181" y="53" type="qcurve" name="sv01"/>
      <point x="186" y="53"/>
      <point x="206" y="57"/>
      <point x="216.5" y="63.0" type="qcurve" smooth="yes" name="inserted"/>
      <point x="227" y="69"/>
      <point x="245" y="89"/>
      <point x="248" y="106" type="qcurve" name="sh05"/>
      <point x="252" y="128"/>
      <point x="231" y="151" name="fh01"/>
      <point x="213.0" y="158.5" type="qcurve" smooth="yes" name="inserted"/>
      <point x="195" y="166" name="sv02"/>
      <point x="152" y="179" name="fh02"/>
      <point x="134.0" y="190.0" type="qcurve" smooth="yes" name="inserted"/>
      <point x="116" y="201" name="fh03"/>
      <point x="96" y="240" name="fh04"/>
      <point x="101" y="274" type="qcurve" name="dh01"/>
      <point x="105" y="303"/>
      <point x="132" y="344" name="fh05"/>
      <point x="151.0" y="357.0" type="qcurve" smooth="yes" name="inserted"/>
      <point x="170" y="370" name="fh06"/>
      <point x="212" y="382"/>
      <point x="230" y="382" type="qcurve" name="at01"/>
      <point x="237" y="382"/>
      <point x="263" y="379"/>
      <point x="278.0" y="375.0" type="qcurve" smooth="yes" name="inserted"/>
      <point x="293" y="371"/>
      <point x="321" y="356"/>
      <point x="330" y="344" type="qcurve" name="sh06"/>
      <point x="318" y="264" type="line" name="sh07"/>
      <point x="262" y="264" type="line" name="sh08"/>
      <point x="270" y="311" type="line" name="sh09"/>
      <point x="260" y="318"/>
      <point x="231" y="322"/>
      <point x="223" y="322" type="qcurve" name="sv03"/>
      <point x="200" y="322"/>
      <point x="165" y="298"/>
      <point x="163" y="273" type="qcurve" name="sh10"/>
      <point x="162" y="256"/>
      <point x="187" y="236"/>
      <point x="204.5" y="228.0" type="qcurve" smooth="yes" name="inserted"/>
      <point x="222" y="220" name="iv01"/>
      <point x="264" y="204" name="fh07"/>
      <point x="280.5" y="191.0" type="qcurve" smooth="yes" name="inserted"/>
      <point x="297" y="178" name="fh08"/>
      <point x="316" y="138"/>
      <point x="312" y="107" type="qcurve" name="dh02"/>
      <point x="310" y="92"/>
      <point x="293" y="52" name="fh09"/>
      <point x="276.0" y="34.0" type="qcurve" smooth="yes" name="inserted"/>
      <point x="259" y="16" name="fh10"/>
      <point x="208" y="-8"/>
      <point x="171" y="-8" type="qcurve" name="ab01"/>
      <point x="157" y="-8"/>
      <point x="123" y="-4"/>
      <point x="107.0" y="0.5" type="qcurve" smooth="yes" name="inserted"/>
      <point x="91" y="5"/>
      <point x="63" y="20"/>
      <point x="54" y="31" type="qcurve" name="sh01"/>
      <point x="65" y="111" type="line" name="sh02"/>
    </contour>
  </outline>
</glyph>
<glyph name="u" format="1">
  <advance width="554"/>
  <unicode hex="0075"/>
  <outline>
    <contour>
      <point x="88" y="375" type="line" name="at01"/>
      <point x="220" y="375" type="line" name="sh02"/>
      <point x="186" y="128" type="line" name="sh01"/>
      <point x="184" y="98" name="fh01"/>
      <point x="216" y="55" name="fh02"/>
      <point x="256" y="53" type="qcurve" name="sv01"/>
      <point x="284" y="53"/>
      <point x="338" y="72" name="fv01"/>
      <point x="360.5" y="89.5" type="qcurve" smooth="yes" name="inserted"/>
      <point x="383" y="107"/>
      <point x="413" y="154" name="fh03"/>
      <point x="417" y="182" type="qcurve" name="ih01"/>
      <point x="435" y="315" type="line" name="sh04"/>
      <point x="365" y="315" type="line" name="sh05"/>
      <point x="374" y="375" type="line" name="sv02"/>
      <point x="506" y="375" type="line" name="sh06"/>
      <point x="461" y="53" type="line" name="dh02"/>
      <point x="528" y="53" type="line" name="sh07"/>
      <point x="520" y="0" type="line"/>
      <point x="394" y="0" type="line" name="sh08"/>
      <point x="400" y="52" type="line" name="sh03"/>
      <point x="408" y="97" type="line" name="ih02"/>
      <point x="381" y="49"/>
      <point x="285" y="-8"/>
      <point x="230" y="-8" type="qcurve" name="ab01"/>
      <point x="173" y="-8"/>
      <point x="115" y="54" name="fh04"/>
      <point x="120" y="104" type="qcurve" name="dh01"/>
      <point x="150" y="315" type="line" name="sh09"/>
      <point x="80" y="315" type="line" name="sh10"/>
    </contour>
  </outline>
</glyph>
<glyph name="w" format="1">
  <advance width="839"/>
  <unicode hex="0077"/>
  <outline>
    <contour>
      <point x="667" y="375" type="line" name="sv02"/>
      <point x="859" y="375" type="line" name="sh01"/>
      <point x="851" y="315" type="line"/>
      <point x="778" y="315" type="line" name="dh02"/>
      <point x="724" y="230"/>
      <point x="615" y="62"/>
      <point x="562" y="-23" type="qcurve" name="ih02"/>
      <point x="463" y="247" type="line" name="ih01"/>
      <point x="290" y="-23" type="line" name="ih03"/>
      <point x="258" y="62"/>
      <point x="196" y="230"/>
      <point x="166" y="315" type="qcurve" name="dh01"/>
      <point x="82" y="315" type="line" name="sh02"/>
      <point x="90" y="375" type="line" name="at01"/>
      <point x="283" y="375" type="line" name="sh04"/>
      <point x="275" y="315" type="line"/>
      <point x="228" y="315" type="line" name="sh03"/>
      <point x="248" y="258" name="fh01"/>
      <point x="288" y="143"/>
      <point x="305" y="86" type="qcurve" name="sh05"/>
      <point x="328" y="130" name="fh02"/>
      <point x="381" y="214"/>
      <point x="407" y="256" type="qcurve" name="sv03"/>
      <point x="409" y="271"/>
      <point x="414" y="300" name="fh03"/>
      <point x="416" y="315" type="qcurve" name="sh07"/>
      <point x="358" y="315" type="line" name="sh08"/>
      <point x="366" y="375" type="line" name="sv01"/>
      <point x="570" y="375" type="line" name="sh09"/>
      <point x="562" y="315" type="line"/>
      <point x="500" y="315" type="line" name="sh06"/>
      <point x="520" y="258" name="fh04"/>
      <point x="560" y="143" name="fh05"/>
      <point x="577" y="86" type="qcurve" name="sh10"/>
      <point x="609" y="144"/>
      <point x="679" y="258"/>
      <point x="716" y="315" type="qcurve" name="sh11"/>
      <point x="659" y="315" type="line" name="sh12"/>
    </contour>
  </outline>
</glyph>
<glyph name="y" format="1">
  <advance width="609"/>
  <unicode hex="0079"/>
  <outline>
    <contour>
      <point x="100" y="-191" type="line" name="sv01"/>
      <point x="187" y="-191" type="line" name="sh03"/>
      <point x="217" y="-143"/>
      <point x="278" y="-48" name="fh01"/>
      <point x="309" y="-1" type="qcurve" name="ih02"/>
      <point x="280" y="78" name="fh02"/>
      <point x="223" y="236"/>
      <point x="194" y="315" type="qcurve" name="dh01"/>
      <point x="114" y="315" type="line" name="sh04"/>
      <point x="122" y="375" type="line" name="at01"/>
      <point x="326" y="375" type="line" name="sh05"/>
      <point x="317" y="315" type="line"/>
      <point x="259" y="315" type="line" name="sh01"/>
      <point x="284" y="251"/>
      <point x="332" y="121"/>
      <point x="349" y="56" type="qcurve" name="ih01"/>
      <point x="383" y="120"/>
      <point x="468" y="250"/>
      <point x="510" y="315" type="qcurve" name="sh02"/>
      <point x="451" y="315" type="line" name="sh06"/>
      <point x="459" y="375" type="line" name="sv02"/>
      <point x="661" y="375" type="line" name="sh07"/>
      <point x="653" y="315" type="line"/>
      <point x="575" y="315" type="line" name="dh02"/>
      <point x="494" y="188" name="fh03"/>
      <point x="332" y="-63" name="fh04"/>
      <point x="251" y="-191" type="qcurve" name="sh08"/>
      <point x="308" y="-191" type="line" name="sh09"/>
      <point x="300" y="-250" type="line"/>
      <point x="92" y="-250" type="line" name="sh10"/>
    </contour>
  </outline>
</glyph>
<glyph name="z" format="1">
  <advance width="433"/>
  <unicode hex="007A"/>
  <outline>
    <contour>
      <point x="414" y="116" type="line" name="sh01"/>
      <point x="398" y="0" type="line" name="sh02"/>
      <point x="35" y="0" type="line" name="dh01"/>
      <point x="43" y="61" type="line" name="sv01"/>
      <point x="121" y="125"/>
      <point x="255" y="250"/>
      <point x="333" y="315" type="qcurve" name="sh03"/>
      <point x="91" y="315" type="line" name="sh04"/>
      <point x="104" y="410" type="line" name="sh05"/>
      <point x="160" y="410" type="line" name="sh06"/>
      <point x="155" y="375" type="line" name="sh07"/>
      <point x="429" y="375" type="line" name="dh02"/>
      <point x="421" y="314" type="line" name="sv02"/>
      <point x="382" y="281" name="fv01"/>
      <point x="310" y="218"/>
      <point x="275.0" y="187.0" type="qcurve" smooth="yes" name="inserted"/>
      <point x="240" y="156"/>
      <point x="169" y="93" name="fh01"/>
      <point x="130" y="61" type="qcurve" name="sh08"/>
      <point x="350" y="61" type="line" name="sh10"/>
      <point x="358" y="116" type="line" name="sh09"/>
    </contour>
  </outline>
</glyph>
<glyph name="braceright" format="1">
  <advance width="320"/>
  <unicode hex="007D"/>
  <outline>
    <contour>
      <point x="358" y="329" type="qcurve" name="dh02"/>
      <point x="348" y="265" type="line" name="sv01"/>
      <point x="322" y="264"/>
      <point x="286" y="233"/>
      <point x="275.0" y="210.5" type="qcurve" smooth="yes" name="inserted"/>
      <point x="264" y="188"/>
      <point x="252" y="138"/>
      <point x="249" y="119" type="qcurve" name="ih01"/>
      <point x="228" y="-31" type="line" name="sh01"/>
      <point x="222" y="-77"/>
      <point x="197" y="-126"/>
      <point x="180.5" y="-136.5" type="qcurve" smooth="yes" name="inserted"/>
      <point x="164" y="-147"/>
      <point x="124" y="-149"/>
      <point x="103" y="-149" type="qcurve" name="av02"/>
      <point x="47" y="-149" type="line" name="dh01"/>
      <point x="56" y="-88" type="line" name="sh02"/>
      <point x="104" y="-88" type="line" name="sv02"/>
      <point x="119" y="-88"/>
      <point x="141" y="-79"/>
      <point x="148.5" y="-67.0" type="qcurve" smooth="yes" name="inserted"/>
      <point x="156" y="-55"/>
      <point x="166" y="-14"/>
      <point x="171" y="18" type="qcurve" name="sh04"/>
      <point x="191" y="164" type="line" name="sh03"/>
      <point x="196" y="195"/>
      <point x="216" y="241" name="fh01"/>
      <point x="228.0" y="257.0" type="qcurve" smooth="yes" name="inserted"/>
      <point x="240" y="273" name="fh02"/>
      <point x="266" y="292"/>
      <point x="276" y="298" type="qcurve" name="sh05"/>
      <point x="266" y="305"/>
      <point x="246" y="325"/>
      <point x="239.0" y="342.0" type="qcurve" smooth="yes" name="inserted"/>
      <point x="232" y="359"/>
      <point x="226" y="408"/>
      <point x="231" y="444" type="qcurve" name="ih02"/>
      <point x="250" y="579" type="line" name="sh06"/>
      <point x="254" y="611"/>
      <point x="255" y="652"/>
      <point x="251.0" y="664.0" type="qcurve" smooth="yes" name="inserted"/>
      <point x="247" y="676"/>
      <point x="228" y="685"/>
      <point x="213" y="685" type="qcurve" name="sv03"/>
      <point x="165" y="685" type="line" name="sh08"/>
      <point x="173" y="746" type="line"/>
      <point x="229" y="746" type="line" name="av01"/>
      <point x="250" y="746"/>
      <point x="289" y="744"/>
      <point x="302.5" y="733.5" type="qcurve" smooth="yes" name="inserted"/>
      <point x="316" y="723"/>
      <point x="327" y="674"/>
      <point x="321" y="628" type="qcurve" name="sh07"/>
      <point x="299" y="475" type="line" name="ih03"/>
      <point x="296" y="455"/>
      <point x="294" y="406"/>
      <point x="299.5" y="383.5" type="qcurve" smooth="yes" name="inserted"/>
      <point x="305" y="361"/>
      <point x="332" y="330"/>
    </contour>
  </outline>
</glyph>
<glyph name="exclamdown" format="1">
  <advance width="200"/>
  <unicode hex="00A1"/>
  <outline>
    <contour>
      <point x="206" y="529" type="qcurve" name="av01"/>
      <point x="222" y="529"/>
      <point x="244" y="505"/>
      <point x="241" y="486" type="qcurve" name="sh01"/>
      <point x="238" y="467"/>
      <point x="209" y="444"/>
      <point x="194" y="444" type="qcurve" name="sv01"/>
      <point x="178" y="444"/>
      <point x="155" y="467"/>
      <point x="157" y="486" type="qcurve" name="ah01"/>
      <point x="161" y="505"/>
      <point x="190" y="529"/>
    </contour>
    <contour>
      <point x="152" y="374" type="line" name="sh03"/>
      <point x="215" y="374" type="line" name="sh02"/>
      <point x="133" y="-210" type="line" name="sh04"/>
      <point x="70" y="-210" type="line" name="sh05"/>
    </contour>
  </outline>
</glyph>
<glyph name="cent" format="1">
  <advance width="385"/>
  <unicode hex="00A2"/>
  <outline>
    <contour>
      <point x="341" y="82" type="qcurve" name="sh02"/>
      <point x="373" y="35" type="line" name="sh01"/>
      <point x="348.5" y="17.5" name="inserted"/>
      <point x="292.5" y="-3.5"/>
      <point x="261" y="-7" type="qcurve" name="ih03"/>
      <point x="253" y="-68" type="line" name="sh03"/>
      <point x="190" y="-68" type="line" name="ih01"/>
      <point x="198" y="-2" type="line" name="ih04"/>
      <point x="166" y="5" name="fh01"/>
      <point x="114" y="40" name="fh02"/>
      <point x="97.0" y="65.0" type="qcurve" smooth="yes" name="inserted"/>
      <point x="80" y="90" name="fh03"/>
      <point x="66" y="153"/>
      <point x="71" y="188" type="qcurve" name="dh01"/>
      <point x="76" y="222"/>
      <point x="109" y="285" name="fh04"/>
      <point x="133.0" y="310.5" type="qcurve" smooth="yes" name="inserted"/>
      <point x="157" y="336" name="fh05"/>
      <point x="218" y="371"/>
      <point x="252" y="378" type="qcurve" name="ih05"/>
      <point x="261" y="438" type="line" name="sh04"/>
      <point x="324" y="438" type="line" name="ih02"/>
      <point x="316" y="382" type="line" name="ih06"/>
      <point x="346" y="380"/>
      <point x="397" y="358"/>
      <point x="417" y="341" type="qcurve" name="dh02"/>
      <point x="416.5" y="340.5" name="inserted"/>
      <point x="416.0" y="340.0"/>
      <point x="416" y="340" type="qcurve"/>
      <point x="413" y="319" type="line"/>
      <point x="401" y="233" type="line" name="sh05"/>
      <point x="345" y="233" type="line" name="sh06"/>
      <point x="355" y="304" type="line" name="sh07"/>
      <point x="345" y="312"/>
      <point x="321" y="319"/>
      <point x="307" y="321" type="qcurve" name="ih07"/>
      <point x="269" y="54" type="line" name="ih08"/>
      <point x="288.5" y="56.5" name="inserted"/>
      <point x="324.5" y="70.5"/>
    </contour>
    <contour>
      <point x="133" y="188" type="qcurve" name="sh08"/>
      <point x="127" y="143" name="fh06"/>
      <point x="169" y="74" name="fh07"/>
      <point x="207" y="62" type="qcurve" name="ih09"/>
      <point x="243" y="313" type="line" name="ih10"/>
      <point x="201" y="301" name="fh08"/>
      <point x="140" y="233" name="fh09"/>
    </contour>
  </outline>
</glyph>
<glyph name="sterling" format="1">
  <advance width="574"/>
  <unicode hex="00A3"/>
  <outline>
    <contour>
      <point x="529" y="0" type="line" name="sh02"/>
      <point x="28" y="0" type="line" name="dh01"/>
      <point x="36" y="61" type="line"/>
      <point x="80" y="61" type="line" name="sv01"/>
      <point x="96" y="61"/>
      <point x="118" y="70"/>
      <point x="125.5" y="83.0" type="qcurve" smooth="yes" name="inserted"/>
      <point x="133" y="96" name="fh01"/>
      <point x="143" y="141"/>
      <point x="148" y="176" type="qcurve" name="sh03"/>
      <point x="164" y="284" type="line" name="ih01"/>
      <point x="99" y="284" type="line" name="sh04"/>
      <point x="107" y="345" type="line"/>
      <point x="172" y="345" type="line" name="ih02"/>
      <point x="194" y="500" type="line" name="sh05"/>
      <point x="204" y="569" name="fh02"/>
      <point x="321" y="634" name="fh03"/>
      <point x="415" y="634" type="qcurve" name="av01"/>
      <point x="482" y="634" name="fh04"/>
      <point x="551" y="577" name="fh05"/>
      <point x="565" y="537" type="qcurve" name="dh02"/>
      <point x="514" y="510" type="line" name="sh06"/>
      <point x="508" y="522"/>
      <point x="495" y="544"/>
      <point x="483.5" y="553.0" type="qcurve" smooth="yes" name="inserted"/>
      <point x="472" y="562"/>
      <point x="435" y="573"/>
      <point x="406" y="573" type="qcurve" name="sv02"/>
      <point x="333" y="573"/>
      <point x="262" y="533"/>
      <point x="255" y="486" type="qcurve" name="sh08"/>
      <point x="235" y="345" type="line" name="ih03"/>
      <point x="355" y="345" type="line" name="sh09"/>
      <point x="347" y="284" type="line"/>
      <point x="227" y="284" type="line" name="sh07"/>
      <point x="207" y="147" type="line" name="sh10"/>
      <point x="203" y="118"/>
      <point x="190" y="75"/>
      <point x="173" y="61" type="qcurve" name="ih04"/>
      <point x="474" y="61" type="line" name="sh12"/>
      <point x="488" y="161" type="line" name="sh11"/>
      <point x="551" y="161" type="line" name="sh01"/>
    </contour>
  </outline>
</glyph>
<glyph name="currency" format="1">
  <advance width="500"/>
  <unicode hex="00A4"/>
  <outline>
    <contour>
      <point x="180" y="360" type="qcurve" name="sh01"/>
      <point x="175" y="323"/>
      <point x="220" y="271"/>
      <point x="257" y="271" type="qcurve" name="sv01"/>
      <point x="295" y="271"/>
      <point x="354" y="323"/>
      <point x="359" y="360" type="qcurve" name="sh02"/>
      <point x="365" y="398"/>
      <point x="320" y="451"/>
      <point x="282" y="451" type="qcurve" name="sv03"/>
      <point x="264" y="451"/>
      <point x="229" y="437" name="fh01"/>
      <point x="215.0" y="424.5" type="qcurve" smooth="yes" name="inserted"/>
      <point x="201" y="412"/>
      <point x="183" y="379"/>
    </contour>
    <contour>
      <point x="117" y="361" type="qcurve" name="dh01"/>
      <point x="120.0" y="382.5" name="inserted"/>
      <point x="138.0" y="423.0"/>
      <point x="153" y="442" type="qcurve" name="ih01"/>
      <point x="147" y="449"/>
      <point x="135" y="462"/>
      <point x="129" y="470" type="qcurve" name="sh03"/>
      <point x="179" y="514" type="line" name="sv04"/>
      <point x="204" y="486" type="line" name="ih02"/>
      <point x="224" y="497"/>
      <point x="267" y="511"/>
      <point x="290" y="511" type="qcurve" name="sv02"/>
      <point x="313.0" y="511.0" name="inserted"/>
      <point x="352.5" y="498.5"/>
      <point x="369" y="486" type="qcurve" name="ih03"/>
      <point x="401" y="514" type="line" name="sv05"/>
      <point x="439" y="470" type="line" name="sh04"/>
      <point x="409" y="443" type="line" name="ih04"/>
      <point x="419.5" y="424.0" name="inserted"/>
      <point x="426.0" y="383.0"/>
      <point x="422" y="361" type="qcurve" name="dh02"/>
      <point x="419" y="337"/>
      <point x="399" y="295" name="fh03"/>
      <point x="384" y="277" type="qcurve" name="ih05"/>
      <point x="409" y="248" type="line" name="sh05"/>
      <point x="359" y="204" type="line" name="sv07"/>
      <point x="332" y="234" type="line" name="ih06"/>
      <point x="313.0" y="222.0" name="inserted"/>
      <point x="270.5" y="210.0"/>
      <point x="247" y="210" type="qcurve" name="av01"/>
      <point x="224.5" y="210.0" name="inserted"/>
      <point x="186.0" y="221.5"/>
      <point x="170" y="233" type="qcurve" name="ih07"/>
      <point x="136" y="203" type="line" name="sv06"/>
      <point x="98" y="247" type="line" name="sh06"/>
      <point x="131" y="276" type="line" name="ih08"/>
      <point x="121" y="294"/>
      <point x="113" y="337"/>
    </contour>
  </outline>
</glyph>
<glyph name="yen" format="1">
  <advance width="768"/>
  <unicode hex="00A5"/>
  <outline>
    <contour>
      <point x="566" y="100" type="line"/>
      <point x="436" y="100" type="line" name="ih01"/>
      <point x="430" y="59" type="line" name="sh01"/>
      <point x="505" y="59" type="line" name="sh03"/>
      <point x="497" y="0" type="line"/>
      <point x="276" y="0" type="line" name="sh04"/>
      <point x="284" y="59" type="line" name="sv01"/>
      <point x="354" y="59" type="line" name="ah01"/>
      <point x="360" y="100" type="line" name="ih02"/>
      <point x="232" y="100" type="line" name="sh06"/>
      <point x="240" y="161" type="line"/>
      <point x="369" y="161" type="line" name="ih03"/>
      <point x="382" y="263" type="line" name="sh05"/>
      <point x="254" y="263" type="line" name="sh07"/>
      <point x="263" y="324" type="line"/>
      <point x="358" y="324" type="line" name="ih04"/>
      <point x="214" y="640" type="line" name="sh08"/>
      <point x="125" y="640" type="line" name="sh09"/>
      <point x="133" y="700" type="line" name="at01"/>
      <point x="355" y="700" type="line" name="sh11"/>
      <point x="346" y="640" type="line"/>
      <point x="290" y="640" type="line" name="sh10"/>
      <point x="322" y="568" name="fh01"/>
      <point x="389" y="426"/>
      <point x="421" y="353" type="qcurve"/>
      <point x="428" y="324" type="line" name="ih05"/>
      <point x="429" y="324" type="line" name="mv01"/>
      <point x="445" y="353" type="line"/>
      <point x="656" y="640" type="line" name="sh13"/>
      <point x="601" y="640" type="line" name="sh14"/>
      <point x="609" y="700" type="line" name="sv02"/>
      <point x="831" y="700" type="line" name="sh15"/>
      <point x="822" y="640" type="line"/>
      <point x="732" y="640" type="line" name="sh12"/>
      <point x="675" y="560" name="fh02"/>
      <point x="559" y="403"/>
      <point x="500" y="324" type="qcurve" name="ih06"/>
      <point x="596" y="324" type="line" name="sh16"/>
      <point x="587" y="263" type="line"/>
      <point x="458" y="263" type="line" name="sh02"/>
      <point x="444" y="161" type="line" name="ih07"/>
      <point x="574" y="161" type="line" name="sh17"/>
    </contour>
  </outline>
</glyph>
<glyph name="brokenbar" format="1">
  <advance width="215"/>
  <unicode hex="00A6"/>
  <outline>
    <contour>
      <point x="142" y="-233" type="line" name="sh01"/>
      <point x="79" y="-233" type="line" name="ah01"/>
      <point x="128" y="117" type="line" name="sh02"/>
      <point x="191" y="117" type="line" name="sh03"/>
    </contour>
    <contour>
      <point x="223" y="350" type="line" name="sh05"/>
      <point x="160" y="350" type="line" name="sh04"/>
      <point x="210" y="700" type="line" name="sh06"/>
      <point x="273" y="700" type="line" name="sh07"/>
    </contour>
  </outline>
</glyph>
<glyph name="dieresis" format="1">
  <advance width="370"/>
  <unicode hex="00A8"/>
  <outline>
    <contour>
      <point x="230" y="514" type="qcurve" name="sh01"/>
      <point x="232" y="532"/>
      <point x="262" y="557"/>
      <point x="278" y="557" type="qcurve" name="sv02"/>
      <point x="294" y="557"/>
      <point x="317" y="532"/>
      <point x="314" y="514" type="qcurve" name="sh02"/>
      <point x="311" y="495"/>
      <point x="283" y="472"/>
      <point x="267" y="472" type="qcurve" name="sv03"/>
      <point x="250" y="472"/>
      <point x="227" y="495"/>
    </contour>
    <contour>
      <point x="64" y="514" type="qcurve" name="ah01"/>
      <point x="67" y="532"/>
      <point x="96" y="557"/>
      <point x="113" y="557" type="qcurve" name="sv01"/>
      <point x="128" y="557"/>
      <point x="151" y="532"/>
      <point x="148" y="514" type="qcurve" name="sh03"/>
      <point x="146" y="495"/>
      <point x="117" y="472"/>
      <point x="101" y="472" type="qcurve" name="av01"/>
      <point x="85" y="472"/>
      <point x="62" y="495"/>
    </contour>
  </outline>
</glyph>
<glyph name="copyright" format="1">
  <advance width="793"/>
  <unicode hex="00A9"/>
  <outline>
    <contour>
      <point x="403" y="143" type="qcurve" name="sv01"/>
      <point x="451" y="143"/>
      <point x="540" y="178" name="fh01"/>
      <point x="575.0" y="208.5" type="qcurve" smooth="yes" name="inserted"/>
      <point x="610" y="239" name="fh02"/>
      <point x="657" y="323"/>
      <point x="664" y="372" type="qcurve" name="sh02"/>
      <point x="671" y="422"/>
      <point x="648" y="506" name="fh03"/>
      <point x="621.5" y="537.0" type="qcurve" smooth="yes" name="inserted"/>
      <point x="595" y="568" name="fh04"/>
      <point x="516" y="602"/>
      <point x="468" y="602" type="qcurve" name="sv02"/>
      <point x="420" y="602"/>
      <point x="332" y="568" name="fh05"/>
      <point x="296.5" y="537.0" type="qcurve" smooth="yes" name="inserted"/>
      <point x="261" y="506" name="fh06"/>
      <point x="214" y="422"/>
      <point x="207" y="372" type="qcurve" name="sh03"/>
      <point x="200" y="323"/>
      <point x="224" y="239" name="fh07"/>
      <point x="250.5" y="208.5" type="qcurve" smooth="yes" name="inserted"/>
      <point x="277" y="178" name="fh08"/>
      <point x="355" y="143" name="fh09"/>
    </contour>
    <contour>
      <point x="400" y="113" type="qcurve" name="av02"/>
      <point x="346" y="113"/>
      <point x="256" y="152" name="fh10"/>
      <point x="225.5" y="187.0" type="qcurve" smooth="yes" name="inserted"/>
      <point x="195" y="222" name="fh11"/>
      <point x="167" y="316"/>
      <point x="175" y="372" type="qcurve" name="ah01"/>
      <point x="183" y="428"/>
      <point x="237" y="524" name="fh12"/>
      <point x="277.5" y="558.5" type="qcurve" smooth="yes" name="inserted"/>
      <point x="318" y="593"/>
      <point x="418" y="632"/>
      <point x="472" y="632" type="qcurve" name="av01"/>
      <point x="526" y="632"/>
      <point x="615" y="593" name="fh13"/>
      <point x="645.5" y="558.5" type="qcurve" smooth="yes" name="inserted"/>
      <point x="676" y="524" name="fh14"/>
      <point x="704" y="428"/>
      <point x="696" y="372" type="qcurve" name="sh01"/>
      <point x="688" y="316"/>
      <point x="635" y="222" name="fh15"/>
      <point x="594.5" y="187.0" type="qcurve" smooth="yes" name="inserted"/>
      <point x="554" y="152" name="fh16"/>
      <point x="454" y="113" name="fh17"/>
    </contour>
    <contour>
      <point x="508" y="464" type="line" name="sh07"/>
      <point x="513" y="498" type="line" name="sh08"/>
      <point x="501.5" y="504.0" name="inserted"/>
      <point x="475.0" y="510.0"/>
      <point x="460" y="510" type="qcurve" name="sv05"/>
      <point x="432" y="510"/>
      <point x="381" y="489" name="fv01"/>
      <point x="360.0" y="470.5" type="qcurve" smooth="yes" name="inserted"/>
      <point x="339" y="452"/>
      <point x="311" y="403"/>
      <point x="307" y="375" type="qcurve" name="sh09"/>
      <point x="303" y="347"/>
      <point x="317" y="298" name="fh18"/>
      <point x="332.5" y="279.5" type="qcurve" smooth="yes" name="inserted"/>
      <point x="348" y="261" name="fh19"/>
      <point x="394" y="240"/>
      <point x="421" y="240" type="qcurve" name="sv06"/>
      <point x="438.5" y="240.0" name="inserted"/>
      <point x="473.5" y="249.5"/>
      <point x="491" y="259" type="qcurve" name="sv07"/>
      <point x="504" y="236" type="line" name="sh10"/>
      <point x="484" y="225"/>
      <point x="441" y="213"/>
      <point x="418" y="213" type="qcurve" name="sv03"/>
      <point x="385" y="213" name="fh20"/>
      <point x="329" y="239" name="fh21"/>
      <point x="310.5" y="261.0" type="qcurve" smooth="yes" name="inserted"/>
      <point x="292" y="283" name="fh22"/>
      <point x="274" y="342"/>
      <point x="279" y="375" type="qcurve" name="sh04"/>
      <point x="284" y="409"/>
      <point x="318" y="468" name="fh23"/>
      <point x="342.5" y="490.0" type="qcurve" smooth="yes" name="inserted"/>
      <point x="367" y="512" name="fh24"/>
      <point x="430" y="537"/>
      <point x="463" y="537" type="qcurve" name="sv04"/>
      <point x="485.5" y="537.0" name="inserted"/>
      <point x="525.5" y="526.0"/>
      <point x="543" y="515" type="qcurve" name="sh05"/>
      <point x="536" y="464" type="line" name="sh06"/>
    </contour>
  </outline>
</glyph>
<glyph name="ordfeminine" format="1">
  <advance width="585"/>
  <unicode hex="00AA"/>
  <outline>
    <contour>
      <point x="103" y="441" type="qcurve" name="dh01"/>
      <point x="107" y="470" name="fh01"/>
      <point x="136" y="521" name="fh02"/>
      <point x="158.5" y="540.5" type="qcurve" smooth="yes" name="inserted"/>
      <point x="181" y="560" name="fh03"/>
      <point x="236" y="583"/>
      <point x="266" y="583" type="qcurve" name="sv01"/>
      <point x="287" y="583"/>
      <point x="320" y="571" name="fh04"/>
      <point x="332.5" y="562.5" type="qcurve" smooth="yes" name="inserted"/>
      <point x="345" y="554" name="fh05"/>
      <point x="360" y="535"/>
      <point x="362" y="528" type="qcurve" name="sh02"/>
      <point x="363" y="540"/>
      <point x="370" y="564"/>
      <point x="371" y="576" type="qcurve" name="sh03"/>
      <point x="408" y="576" type="line" name="sh04"/>
      <point x="376" y="349" type="line" name="dh02"/>
      <point x="430" y="349" type="line" name="sh05"/>
      <point x="424" y="306" type="line"/>
      <point x="331" y="306" type="line" name="sh01"/>
      <point x="334" y="328" type="line"/>
      <point x="335" y="333"/>
      <point x="336" y="346"/>
      <point x="337" y="351" type="qcurve" name="ih01"/>
      <point x="333" y="344"/>
      <point x="313" y="327" name="fh06"/>
      <point x="299.0" y="319.0" type="qcurve" smooth="yes" name="inserted"/>
      <point x="285" y="311"/>
      <point x="248" y="300"/>
      <point x="227" y="300" type="qcurve" name="av01"/>
      <point x="197" y="300"/>
      <point x="147" y="323"/>
      <point x="130.5" y="342.0" type="qcurve" smooth="yes" name="inserted"/>
      <point x="114" y="361"/>
      <point x="98" y="412"/>
    </contour>
    <contour>
      <point x="148" y="442" type="qcurve" name="sh06"/>
      <point x="145" y="421"/>
      <point x="155" y="385"/>
      <point x="166.5" y="372.0" type="qcurve" smooth="yes" name="inserted"/>
      <point x="178" y="359" name="fh07"/>
      <point x="212" y="344"/>
      <point x="233" y="344" type="qcurve" name="sv02"/>
      <point x="253" y="344"/>
      <point x="292" y="359"/>
      <point x="307.0" y="372.0" type="qcurve" smooth="yes" name="inserted"/>
      <point x="322" y="385"/>
      <point x="342" y="421"/>
      <point x="344" y="442" type="qcurve" name="ih02"/>
      <point x="347" y="462"/>
      <point x="338" y="498"/>
      <point x="326.5" y="511.0" type="qcurve" smooth="yes" name="inserted"/>
      <point x="315" y="524"/>
      <point x="281" y="539"/>
      <point x="260" y="539" type="qcurve" name="sv03"/>
      <point x="238" y="539"/>
      <point x="200" y="524" name="fh08"/>
      <point x="185.5" y="511.0" type="qcurve" smooth="yes" name="inserted"/>
      <point x="171" y="498"/>
      <point x="151" y="462"/>
    </contour>
  </outline>
</glyph>
<glyph name="guillemotleft" format="1">
  <advance width="601"/>
  <unicode hex="00AB"/>
  <outline>
    <contour>
      <point x="459" y="77" type="line" name="sv01"/>
      <point x="310" y="239" type="line" name="sh01"/>
      <point x="359" y="280" name="fv01"/>
      <point x="455" y="359" name="fv02"/>
      <point x="504" y="400" type="qcurve" name="sh02"/>
      <point x="494" y="329" type="line" name="sv03"/>
      <point x="469" y="306"/>
      <point x="419" y="262"/>
      <point x="393" y="239" type="qcurve" name="sh03"/>
      <point x="412" y="216"/>
      <point x="449" y="171"/>
      <point x="469" y="148" type="qcurve" name="sh04"/>
    </contour>
    <contour>
      <point x="288" y="77" type="line" name="av01"/>
      <point x="139" y="239" type="line" name="ah01"/>
      <point x="188" y="280" name="fv03"/>
      <point x="284" y="359" name="fv04"/>
      <point x="333" y="400" type="qcurve" name="sh05"/>
      <point x="323" y="328" type="line" name="sv02"/>
      <point x="297" y="306"/>
      <point x="248" y="262"/>
      <point x="222" y="239" type="qcurve" name="sh06"/>
      <point x="241" y="216"/>
      <point x="278" y="171"/>
      <point x="298" y="148" type="qcurve" name="sh07"/>
    </contour>
  </outline>
</glyph>
<glyph name="logicalnot" format="1">
  <advance width="559"/>
  <unicode hex="00AC"/>
  <outline>
    <contour>
      <point x="397" y="148" type="line" name="sh01"/>
      <point x="404" y="200" type="line" name="sh02"/>
      <point x="107" y="200" type="line" name="dh01"/>
      <point x="114" y="246" type="line"/>
      <point x="474" y="246" type="line" name="sh03"/>
      <point x="460" y="148" type="line" name="dh02"/>
    </contour>
  </outline>
</glyph>
<glyph name="macron" format="1">
  <advance width="399"/>
  <unicode hex="00AF"/>
  <outline>
    <contour>
      <point x="85" y="482" type="line" name="dh01"/>
      <point x="90" y="523" type="line" name="sv01"/>
      <point x="320" y="523" type="line" name="dh02"/>
      <point x="315" y="482" type="line"/>
    </contour>
  </outline>
</glyph>
<glyph name="degree" format="1">
  <advance width="282"/>
  <unicode hex="00B0"/>
  <outline>
    <contour>
      <point x="143" y="507" type="qcurve" name="sv02"/>
      <point x="165" y="507" name="fh01"/>
      <point x="200" y="537" name="fh02"/>
      <point x="203" y="559" type="qcurve" name="sh02"/>
      <point x="206" y="582"/>
      <point x="180" y="612"/>
      <point x="158" y="612" type="qcurve" name="sv03"/>
      <point x="135" y="612" name="fv01"/>
      <point x="101" y="582" name="fh03"/>
      <point x="98" y="559" type="qcurve" name="sh03"/>
      <point x="95" y="537"/>
      <point x="121" y="507"/>
    </contour>
    <contour>
      <point x="56" y="560" type="qcurve" name="ah01"/>
      <point x="59" y="579" name="fh04"/>
      <point x="78" y="613" name="fh05"/>
      <point x="92.5" y="626.0" type="qcurve" smooth="yes" name="inserted"/>
      <point x="107" y="639" name="fh06"/>
      <point x="144" y="653"/>
      <point x="164" y="653" type="qcurve" name="at01"/>
      <point x="183" y="653"/>
      <point x="215" y="639"/>
      <point x="225.5" y="626.0" type="qcurve" smooth="yes" name="inserted"/>
      <point x="236" y="613"/>
      <point x="246" y="579"/>
      <point x="244" y="560" type="qcurve" name="sh01"/>
      <point x="241" y="540"/>
      <point x="221" y="507" name="fh07"/>
      <point x="207.0" y="494.0" type="qcurve" smooth="yes" name="inserted"/>
      <point x="193" y="481" name="fh08"/>
      <point x="157" y="467"/>
      <point x="138" y="467" type="qcurve" name="sv01"/>
      <point x="98" y="467"/>
      <point x="51" y="521"/>
    </contour>
  </outline>
</glyph>
<glyph name="threesuperior" format="1">
  <advance width="419"/>
  <unicode hex="00B3"/>
  <outline>
    <contour>
      <point x="129" y="545" type="qcurve" name="ih01"/>
      <point x="226" y="670" type="line" name="sh02"/>
      <point x="147" y="670" type="line" name="sv03"/>
      <point x="144" y="643" type="line"/>
      <point x="115" y="643" type="line" name="ih02"/>
      <point x="122" y="700" type="line" name="at01"/>
      <point x="283" y="700" type="line" name="sh01"/>
      <point x="188" y="581" type="line" name="sh03"/>
      <point x="205" y="577"/>
      <point x="233" y="559" name="fh01"/>
      <point x="242.5" y="546.0" type="qcurve" smooth="yes" name="inserted"/>
      <point x="252" y="533" name="fh02"/>
      <point x="261" y="500"/>
      <point x="258" y="481" type="qcurve" name="dh02"/>
      <point x="255" y="459"/>
      <point x="233" y="421" name="fh03"/>
      <point x="216.5" y="407.0" type="qcurve" smooth="yes" name="inserted"/>
      <point x="200" y="393" name="fh04"/>
      <point x="159" y="376"/>
      <point x="137" y="376" type="qcurve" name="sv01"/>
      <point x="114" y="376"/>
      <point x="77" y="394"/>
      <point x="65" y="410" type="qcurve" name="dh01"/>
      <point x="90" y="432" type="line" name="sh04"/>
      <point x="99" y="420"/>
      <point x="124" y="406"/>
      <point x="141" y="406" type="qcurve" name="sv04"/>
      <point x="157" y="406"/>
      <point x="186" y="418"/>
      <point x="197.5" y="428.5" type="qcurve" smooth="yes" name="inserted"/>
      <point x="209" y="439"/>
      <point x="225" y="466"/>
      <point x="227" y="481" type="qcurve" name="sh05"/>
      <point x="229" y="496"/>
      <point x="221" y="523" name="fh05"/>
      <point x="212.0" y="533.0" type="qcurve" smooth="yes" name="inserted"/>
      <point x="203" y="543"/>
      <point x="177" y="555"/>
      <point x="162" y="555" type="qcurve" name="sv02"/>
      <point x="153.5" y="555.0" name="inserted"/>
      <point x="137.0" y="550.0"/>
    </contour>
  </outline>
</glyph>
<glyph name="mu" format="1">
  <advance width="542"/>
  <unicode hex="00B5"/>
  <outline>
    <contour>
      <point x="388" y="375" type="line" name="sv01"/>
      <point x="520" y="375" type="line" name="sh01"/>
      <point x="476" y="53" type="line" name="dh02"/>
      <point x="543" y="53" type="line" name="sh02"/>
      <point x="535" y="0" type="line"/>
      <point x="409" y="0" type="line" name="sh03"/>
      <point x="415" y="52" type="line"/>
      <point x="422" y="97" type="line" name="ih01"/>
      <point x="395" y="49" name="fh01"/>
      <point x="298" y="-8"/>
      <point x="244" y="-8" type="qcurve" name="ab01"/>
      <point x="224.5" y="-8.0" name="inserted"/>
      <point x="194.5" y="2.5"/>
      <point x="184" y="13" type="qcurve" name="ih02"/>
      <point x="155" y="-201" type="line" name="sh05"/>
      <point x="92" y="-201" type="line" name="dh01"/>
      <point x="164" y="315" type="line" name="sh07"/>
      <point x="94" y="315" type="line" name="sh08"/>
      <point x="103" y="375" type="line" name="at01"/>
      <point x="235" y="375" type="line" name="sh06"/>
      <point x="201" y="128" type="line" name="ih03"/>
      <point x="198" y="98" name="fh03"/>
      <point x="231" y="55"/>
      <point x="271" y="53" type="qcurve" name="sv02"/>
      <point x="299" y="53"/>
      <point x="353" y="72" name="fh04"/>
      <point x="375.5" y="89.5" type="qcurve" smooth="yes" name="inserted"/>
      <point x="398" y="107"/>
      <point x="428" y="154" name="fh05"/>
      <point x="432" y="182" type="qcurve" name="ih04"/>
      <point x="450" y="315" type="line" name="sh04"/>
      <point x="380" y="315" type="line" name="sh09"/>
    </contour>
  </outline>
</glyph>
<glyph name="onesuperior" format="1">
  <advance width="266"/>
  <unicode hex="00B9"/>
  <outline>
    <contour>
      <point x="46" y="428" type="line" name="sv01"/>
      <point x="82" y="428" type="line" name="ah01"/>
      <point x="116" y="672" type="line" name="sh01"/>
      <point x="79" y="672" type="line" name="sh02"/>
      <point x="82" y="700" type="line" name="at01"/>
      <point x="148" y="700" type="line" name="sh04"/>
      <point x="111" y="428" type="line" name="sh03"/>
      <point x="147" y="428" type="line" name="sh05"/>
      <point x="143" y="401" type="line"/>
      <point x="42" y="401" type="line" name="sh06"/>
    </contour>
  </outline>
</glyph>
<glyph name="AE" format="1">
  <advance width="776"/>
  <unicode hex="00C6"/>
  <outline>
    <contour>
      <point x="744" y="546" type="line" name="sh02"/>
      <point x="758" y="640" type="line" name="sh03"/>
      <point x="547" y="640" type="line" name="sh05"/>
      <point x="511" y="382" type="line" name="ih02"/>
      <point x="742" y="382" type="line" name="sh06"/>
      <point x="733" y="323" type="line"/>
      <point x="502" y="323" type="line" name="ih03"/>
      <point x="465" y="59" type="line" name="sh04"/>
      <point x="690" y="59" type="line" name="sh09"/>
      <point x="703" y="154" type="line" name="sh08"/>
      <point x="762" y="154" type="line" name="sh07"/>
      <point x="741" y="0" type="line" name="sh10"/>
      <point x="395" y="0" type="line" name="ih01"/>
      <point x="434" y="280" type="line" name="ih04"/>
      <point x="309" y="280" type="line" name="ih05"/>
      <point x="278" y="224" name="fh01"/>
      <point x="216" y="115" name="fh02"/>
      <point x="185" y="59" type="qcurve" name="sh12"/>
      <point x="251" y="59" type="line" name="sh13"/>
      <point x="243" y="0" type="line"/>
      <point x="35" y="0" type="line" name="sh14"/>
      <point x="43" y="59" type="line" name="sv01"/>
      <point x="122" y="59" type="line" name="dh01"/>
      <point x="213" y="220"/>
      <point x="392" y="539" name="fh03"/>
      <point x="483" y="700" type="qcurve" name="sh15"/>
      <point x="825" y="700" type="line" name="dh02"/>
      <point x="803" y="546" type="line" name="sh01"/>
    </contour>
    <contour>
      <point x="442" y="339" type="line" name="ih06"/>
      <point x="477" y="583" type="line" name="sh11"/>
      <point x="448" y="521"/>
      <point x="376" y="400"/>
      <point x="343" y="339" type="qcurve" name="ih07"/>
    </contour>
  </outline>
</glyph>
<glyph name="Eth" format="1">
  <advance width="632"/>
  <unicode hex="00D0"/>
  <outline>
    <contour>
      <point x="97" y="381" type="line"/>
      <point x="143" y="381" type="line" name="ih01"/>
      <point x="179" y="640" type="line" name="sh01"/>
      <point x="125" y="640" type="line" name="sh02"/>
      <point x="133" y="700" type="line" name="at01"/>
      <point x="343" y="700" type="line"/>
      <point x="415" y="700"/>
      <point x="536" y="651" name="fh01"/>
      <point x="577.5" y="605.0" type="qcurve" smooth="yes" name="inserted"/>
      <point x="619" y="559" name="fh02"/>
      <point x="657" y="430"/>
      <point x="646" y="349" type="qcurve" name="dh02"/>
      <point x="637" y="290"/>
      <point x="579" y="166" name="fh03"/>
      <point x="526.0" y="115.5" type="qcurve" smooth="yes" name="inserted"/>
      <point x="473" y="65" name="fh04"/>
      <point x="317" y="0"/>
      <point x="211" y="0" type="qcurve"/>
      <point x="35" y="0" type="line" name="sh03"/>
      <point x="43" y="59" type="line" name="sv01"/>
      <point x="98" y="59" type="line" name="dh01"/>
      <point x="134" y="320" type="line" name="ih02"/>
      <point x="88" y="320" type="line" name="sh04"/>
    </contour>
    <contour>
      <point x="242" y="640" type="line" name="sh06"/>
      <point x="205" y="381" type="line" name="ih03"/>
      <point x="399" y="381" type="line" name="sh07"/>
      <point x="390" y="320" type="line"/>
      <point x="197" y="320" type="line" name="ih04"/>
      <point x="160" y="60" type="line" name="sh05"/>
      <point x="239" y="60" type="line"/>
      <point x="310" y="60" name="fh05"/>
      <point x="429" y="106" name="fh06"/>
      <point x="474.0" y="145.0" type="qcurve" smooth="yes" name="inserted"/>
      <point x="519" y="184"/>
      <point x="575" y="290"/>
      <point x="584" y="350" type="qcurve" name="sh08"/>
      <point x="593" y="416"/>
      <point x="562" y="524"/>
      <point x="527.5" y="561.5" type="qcurve" smooth="yes" name="inserted"/>
      <point x="493" y="599" name="fh07"/>
      <point x="390" y="640"/>
      <point x="329" y="640" type="qcurve"/>
    </contour>
  </outline>
</glyph>
<glyph name="Thorn" format="1">
  <advance width="524"/>
  <unicode hex="00DE"/>
  <outline>
    <contour>
      <point x="43" y="59" type="line" name="sv01"/>
      <point x="114" y="59" type="line" name="dh01"/>
      <point x="196" y="640" type="line" name="sh01"/>
      <point x="125" y="640" type="line" name="sh02"/>
      <point x="133" y="700" type="line" name="at01"/>
      <point x="341" y="700" type="line" name="sh05"/>
      <point x="332" y="640" type="line"/>
      <point x="258" y="640" type="line" name="sh04"/>
      <point x="243" y="535" type="line" name="ih01"/>
      <point x="338" y="535" type="line"/>
      <point x="371" y="535"/>
      <point x="447" y="514" name="fh01"/>
      <point x="478.0" y="491.5" type="qcurve" smooth="yes" name="inserted"/>
      <point x="509" y="469" name="fh02"/>
      <point x="545" y="399" name="fh03"/>
      <point x="538" y="349" type="qcurve" name="dh02"/>
      <point x="525" y="261" name="fh04"/>
      <point x="402" y="156" name="fh05"/>
      <point x="299" y="156" type="qcurve"/>
      <point x="189" y="156" type="line" name="ih02"/>
      <point x="176" y="59" type="line" name="sh03"/>
      <point x="265" y="59" type="line" name="sh06"/>
      <point x="257" y="0" type="line"/>
      <point x="35" y="0" type="line" name="sh07"/>
    </contour>
    <contour>
      <point x="198" y="216" type="line" name="ih03"/>
      <point x="293" y="216" type="line"/>
      <point x="341" y="216"/>
      <point x="408" y="241" name="fh06"/>
      <point x="429.5" y="260.5" type="qcurve" smooth="yes" name="inserted"/>
      <point x="451" y="280"/>
      <point x="473" y="327"/>
      <point x="476" y="349" type="qcurve" name="sh08"/>
      <point x="479" y="374"/>
      <point x="461" y="420"/>
      <point x="441.5" y="437.5" type="qcurve" smooth="yes" name="inserted"/>
      <point x="422" y="455"/>
      <point x="365" y="476"/>
      <point x="331" y="476" type="qcurve"/>
      <point x="235" y="476" type="line" name="ih04"/>
    </contour>
  </outline>
</glyph>
<glyph name="germandbls" format="1">
  <advance width="554"/>
  <unicode hex="00DF"/>
  <outline>
    <contour>
      <point x="44" y="59" type="line" name="sv01"/>
      <point x="111" y="59" type="line" name="dh01"/>
      <point x="151" y="345" type="line" name="ih01"/>
      <point x="90" y="345" type="line" name="sh02"/>
      <point x="98" y="406" type="line" name="iv01"/>
      <point x="160" y="406" type="line" name="ih02"/>
      <point x="162" y="424" type="line" name="sh01"/>
      <point x="170" y="479"/>
      <point x="215" y="565" name="fh01"/>
      <point x="247.0" y="595.0" type="qcurve" smooth="yes" name="inserted"/>
      <point x="279" y="625"/>
      <point x="357" y="657"/>
      <point x="397" y="657" type="qcurve" name="at01"/>
      <point x="429" y="657"/>
      <point x="482" y="632" name="fh02"/>
      <point x="500.0" y="611.0" type="qcurve" smooth="yes" name="inserted"/>
      <point x="518" y="590" name="fh03"/>
      <point x="534" y="534"/>
      <point x="530" y="502" type="qcurve" name="sh03"/>
      <point x="525" y="467" name="fh04"/>
      <point x="485" y="408"/>
      <point x="456" y="390" type="qcurve" name="ih03"/>
      <point x="504" y="365" name="fh05"/>
      <point x="557" y="266"/>
      <point x="548" y="204" type="qcurve" name="dh02"/>
      <point x="542" y="160"/>
      <point x="497" y="83" name="fh06"/>
      <point x="464.0" y="54.0" type="qcurve" smooth="yes" name="inserted"/>
      <point x="431" y="25" name="fh07"/>
      <point x="348" y="-9"/>
      <point x="304" y="-9" type="qcurve" name="ab01"/>
      <point x="279.0" y="-9.0" name="inserted"/>
      <point x="234.5" y="2.0"/>
      <point x="215" y="13" type="qcurve" name="ih04"/>
      <point x="248" y="68" type="line" name="sv02"/>
      <point x="262.5" y="60.0" name="inserted"/>
      <point x="294.0" y="52.0"/>
      <point x="311" y="52" type="qcurve" name="sv03"/>
      <point x="342" y="52"/>
      <point x="402" y="76"/>
      <point x="426.0" y="97.0" type="qcurve" smooth="yes" name="inserted"/>
      <point x="450" y="118"/>
      <point x="482" y="173"/>
      <point x="486" y="204" type="qcurve" name="sh04"/>
      <point x="490" y="235"/>
      <point x="473" y="289" name="fh09"/>
      <point x="455.0" y="309.5" type="qcurve" smooth="yes" name="inserted"/>
      <point x="437" y="330" name="fh10"/>
      <point x="384" y="354"/>
      <point x="353" y="354" type="qcurve" name="ih05"/>
      <point x="355" y="361"/>
      <point x="355" y="376"/>
      <point x="357" y="384" type="qcurve"/>
      <point x="361" y="415" type="line" name="iv02"/>
      <point x="400" y="415"/>
      <point x="462" y="462"/>
      <point x="467" y="501" type="qcurve" name="sh05"/>
      <point x="470" y="520"/>
      <point x="461" y="555"/>
      <point x="450.5" y="568.0" type="qcurve" smooth="yes" name="inserted"/>
      <point x="440" y="581"/>
      <point x="409" y="597"/>
      <point x="390" y="596" type="qcurve" name="sv04"/>
      <point x="360" y="595"/>
      <point x="305" y="571"/>
      <point x="282.5" y="548.5" type="qcurve" smooth="yes" name="inserted"/>
      <point x="260" y="526"/>
      <point x="230" y="462"/>
      <point x="224" y="422" type="qcurve" name="sh06"/>
      <point x="165" y="0" type="line" name="sh07"/>
      <point x="36" y="0" type="line" name="sh08"/>
    </contour>
  </outline>
</glyph>
<glyph name="idieresis" format="1">
  <advance width="278"/>
  <unicode hex="00EF"/>
  <outline>
    <contour>
      <point x="43" y="59" type="line" name="sv01"/>
      <point x="117" y="59" type="line" name="ah01"/>
      <point x="152" y="315" type="line" name="sh01"/>
      <point x="79" y="315" type="line" name="sh02"/>
      <point x="87" y="375" type="line" name="at01"/>
      <point x="223" y="375" type="line" name="sh04"/>
      <point x="179" y="59" type="line" name="sh03"/>
      <point x="251" y="59" type="line" name="sh05"/>
      <point x="243" y="0" type="line"/>
      <point x="35" y="0" type="line" name="sh06"/>
    </contour>
    <contour>
      <point x="248" y="514" type="qcurve" name="sh07"/>
      <point x="250" y="532"/>
      <point x="280" y="557"/>
      <point x="296" y="557" type="qcurve" name="sv04"/>
      <point x="312" y="557"/>
      <point x="335" y="532"/>
      <point x="332" y="514" type="qcurve" name="sh08"/>
      <point x="329" y="495"/>
      <point x="301" y="472"/>
      <point x="285" y="472" type="qcurve" name="sv05"/>
      <point x="268" y="472"/>
      <point x="245" y="495"/>
    </contour>
    <contour>
      <point x="82" y="514" type="qcurve" name="sh10"/>
      <point x="85" y="532"/>
      <point x="114" y="557"/>
      <point x="131" y="557" type="qcurve" name="sv03"/>
      <point x="146" y="557"/>
      <point x="169" y="532"/>
      <point x="166" y="514" type="qcurve" name="sh09"/>
      <point x="164" y="495"/>
      <point x="135" y="472"/>
      <point x="119" y="472" type="qcurve" name="sv02"/>
      <point x="103" y="472"/>
      <point x="80" y="495"/>
    </contour>
  </outline>
</glyph>
<glyph name="divide" format="1">
  <advance width="501"/>
  <unicode hex="00F7"/>
  <outline>
    <contour>
      <point x="428" y="207" type="line"/>
      <point x="68" y="207" type="line" name="sh01"/>
      <point x="76" y="268" type="line" name="sv01"/>
      <point x="436" y="268" type="line" name="sh04"/>
    </contour>
    <contour>
      <point x="226" y="363" type="qcurve" name="sh02"/>
      <point x="228" y="382"/>
      <point x="257" y="406"/>
      <point x="274" y="406" type="qcurve" name="sv03"/>
      <point x="290" y="406"/>
      <point x="312" y="382"/>
      <point x="310" y="363" type="qcurve" name="sh03"/>
      <point x="308" y="344"/>
      <point x="278" y="321"/>
      <point x="262" y="321" type="qcurve" name="sv02"/>
      <point x="246" y="321"/>
      <point x="223" y="344"/>
    </contour>
    <contour>
      <point x="191" y="113" type="qcurve" name="ah01"/>
      <point x="193" y="132"/>
      <point x="222" y="156"/>
      <point x="239" y="156" type="qcurve" name="sv04"/>
      <point x="255" y="156"/>
      <point x="277" y="132"/>
      <point x="275" y="113" type="qcurve" name="sh05"/>
      <point x="272" y="94"/>
      <point x="243" y="71"/>
      <point x="227" y="71" type="qcurve" name="sv05"/>
      <point x="211" y="71"/>
      <point x="188" y="94"/>
    </contour>
  </outline>
</glyph>
<glyph name="thorn" format="1">
  <advance width="506"/>
  <unicode hex="00FE"/>
  <outline>
    <contour>
      <point x="-46" y="-191" type="line" name="sv01"/>
      <point x="30" y="-191" type="line" name="dh01"/>
      <point x="155" y="690" type="line" name="sh01"/>
      <point x="78" y="690" type="line" name="sh02"/>
      <point x="86" y="750" type="line" name="at01"/>
      <point x="294" y="750" type="line" name="sh05"/>
      <point x="285" y="690" type="line"/>
      <point x="217" y="690" type="line" name="sh04"/>
      <point x="168" y="348" type="line"/>
      <point x="165" y="337"/>
      <point x="158" y="318"/>
      <point x="156" y="307" type="qcurve" name="ih01"/>
      <point x="162" y="318"/>
      <point x="190" y="344"/>
      <point x="210.5" y="355.5" type="qcurve" smooth="yes" name="inserted"/>
      <point x="231" y="367" name="fh01"/>
      <point x="282" y="382"/>
      <point x="309" y="382" type="qcurve" name="at02"/>
      <point x="351" y="382"/>
      <point x="419" y="351"/>
      <point x="442.5" y="324.5" type="qcurve" smooth="yes" name="inserted"/>
      <point x="466" y="298" name="fh02"/>
      <point x="487" y="227"/>
      <point x="481" y="187" type="qcurve" name="dh02"/>
      <point x="475" y="147" name="fh03"/>
      <point x="435" y="76" name="fh04"/>
      <point x="404.0" y="49.0" type="qcurve" smooth="yes" name="inserted"/>
      <point x="373" y="22" name="fh05"/>
      <point x="296" y="-9" name="fv01"/>
      <point x="254" y="-9" type="qcurve" name="ab01"/>
      <point x="225" y="-9"/>
      <point x="180" y="5" name="fh06"/>
      <point x="163.0" y="15.5" type="qcurve" smooth="yes" name="inserted"/>
      <point x="146" y="26" name="fv02"/>
      <point x="125" y="50"/>
      <point x="122" y="61" type="qcurve" name="ih02"/>
      <point x="123" y="53"/>
      <point x="124" y="39"/>
      <point x="124" y="32" type="qcurve"/>
      <point x="93" y="-191" type="line" name="sh03"/>
      <point x="175" y="-191" type="line" name="sh06"/>
      <point x="167" y="-250" type="line"/>
      <point x="-54" y="-250" type="line" name="sh07"/>
    </contour>
    <contour>
      <point x="418" y="188" type="qcurve" name="sh08"/>
      <point x="422" y="216"/>
      <point x="409" y="265"/>
      <point x="393.0" y="283.0" type="qcurve" smooth="yes" name="inserted"/>
      <point x="377" y="301" name="fh07"/>
      <point x="330" y="322"/>
      <point x="301" y="322" type="qcurve" name="sv02"/>
      <point x="272" y="322"/>
      <point x="219" y="301" name="fh08"/>
      <point x="198.5" y="283.0" type="qcurve" smooth="yes" name="inserted"/>
      <point x="178" y="265"/>
      <point x="150" y="216"/>
      <point x="146" y="188" type="qcurve" name="ih03"/>
      <point x="142" y="159"/>
      <point x="156" y="110" name="fh09"/>
      <point x="171.5" y="91.5" type="qcurve" smooth="yes" name="inserted"/>
      <point x="187" y="73" name="fh10"/>
      <point x="233" y="52"/>
      <point x="263" y="52" type="qcurve" name="sv03"/>
      <point x="292" y="52"/>
      <point x="345" y="73"/>
      <point x="366.0" y="91.5" type="qcurve" smooth="yes" name="inserted"/>
      <point x="387" y="110" name="fh11"/>
      <point x="414" y="159"/>
    </contour>
  </outline>
</glyph>
<glyph name="guilsinglleft" format="1">
  <advance width="392"/>
  <unicode hex="2039"/>
  <outline>
    <contour>
      <point x="288" y="77" type="line" name="av01"/>
      <point x="139" y="239" type="line" name="ah01"/>
      <point x="188" y="280" name="fv01"/>
      <point x="284" y="359" name="fv02"/>
      <point x="333" y="400" type="qcurve" name="sh01"/>
      <point x="323" y="328" type="line" name="sv01"/>
      <point x="297" y="306"/>
      <point x="248" y="262"/>
      <point x="222" y="239" type="qcurve" name="sh02"/>
      <point x="241" y="216"/>
      <point x="278" y="171"/>
      <point x="298" y="148" type="qcurve" name="sh03"/>
    </contour>
  </outline>
</glyph>
<glyph name="guilsinglright" format="1">
  <advance width="392"/>
  <unicode hex="203A"/>
  <outline>
    <contour>
      <point x="127" y="148" type="line" name="sv01"/>
      <point x="152" y="171"/>
      <point x="201" y="216"/>
      <point x="227" y="239" type="qcurve" name="sh01"/>
      <point x="208" y="262"/>
      <point x="171" y="306"/>
      <point x="152" y="328" type="qcurve" name="sh03"/>
      <point x="162" y="400" type="line" name="sv02"/>
      <point x="199" y="359" name="fv01"/>
      <point x="273" y="280" name="fv02"/>
      <point x="310" y="239" type="qcurve" name="ah01"/>
      <point x="117" y="77" type="line" name="sh02"/>
    </contour>
  </outline>
</glyph>
